<?xml version="1.0" encoding="utf-8"?>
<!-- Generator: Adobe Illustrator 24.0.1, SVG Export Plug-In . SVG Version: 6.00 Build 0)  -->
<svg version="1.1" id="Layer_1" xmlns="http://www.w3.org/2000/svg" xmlns:xlink="http://www.w3.org/1999/xlink" x="0px" y="0px"
	 viewBox="0 0 761.5 527.3" style="enable-background:new 0 0 761.5 527.3;" xml:space="preserve">
<style type="text/css">
	.st0{opacity:0.1;}
	.st1{fill:#23222D;}
	.st2{fill:#393843;}
	.st3{fill:#2D2C37;}
	.st4{fill:#504F58;}
	.st5{fill:#C4C2BB;}
	.st6{fill:#B0AC9E;}
	.st7{fill:#B7B4A9;}
	.st8{fill:#9D9783;}
	.st9{fill:#D5D2C9;}
	.st10{fill:#DED8D1;}
	.st11{fill:#F9F7F4;}
	.st12{fill:#FCFBFA;}
	.st13{fill:#EDE8E4;}
	.st14{fill:#8694A1;}
	.st15{fill:#677E93;}
	.st16{fill:#F3F1EE;}
	.st17{fill:#EBE7E3;}
	.st18{fill:#CDC6BC;}
	.st19{fill:#DBD8D5;}
	.st20{fill:#CCC9C6;}
	.st21{fill:#BFBCB9;}
	.st22{fill:#A19E9C;}
	.st23{fill:#7A7877;}
	.st24{fill:#42484E;}
	.st25{fill:#546064;}
	.st26{fill:#A197AD;}
	.st27{fill:#D4CBE2;}
	.st28{fill:#E6E2DC;}
	.st29{fill:#383838;}
	.st30{fill:#9C958D;}
</style>
<g id="Group_121" transform="translate(-157.573 5.011)">
	<g id="Group_109" transform="translate(157.573 -5.011)">
		<path id="Path_6406" class="st0" d="M436.6,454.6l-131.1-58.9l-23.6-1.5l-141.6,83c-4.8,1.9-39.8,15.2-68.8,15.2
			c-7.7,0-14.1-0.9-19.4-2.8c0.4-1.6,0.9-3.1,1.5-4.6c1.1-2.7,2.3-5.4,3.8-8c2.7-5,5.8-9.8,9.1-14.4c1-1.4,2.3-3.7,4.2-7
			c1.1-1.9,2.1-3.7,2.7-4.4c10.2-13.2,64.7-48.2,75-54.8l66.2-39.2l-3-15.5l-103.3-76.6L0,127l24.2-15.2l136.2,112.3l146.9,79.3
			l69.6-39.6c0.4-0.3,26.6-2.2,52.8-9.6c4.3-1.2,9.7-2.9,15.7-4.8l12.2-3.9l0,0c7.2-2.4,14.9-4.9,22.6-7.5
			c21.1-7.1,49.8-16.6,56-17.6c0.3,0.4,0.4,0.8,0.6,1.3c0.2,0.6,0.3,1.1,0.4,1.7c-0.3,0.3-8.6,10-8.6,10l99.3,49.2l-10.5,4.5
			l-113.6-26.5l-3.6,3.8c-15.4,16.2-58.1,37.8-58.1,37.8L373.5,341l141.1,83.6L729,504.2l-43.7,23.2L436.6,454.6z M443.4,226.1
			l-41.9-59.8l11.4-8.8l73.9,49.8l-37.9,21.9l5.1,11.4L443.4,226.1z"/>
		<g id="Group_37" transform="translate(156.437 376.285)">
			<g id="Group_35" transform="translate(0 50.187)">
				<path id="Path_6407" class="st1" d="M0,12.1C0.3,7.6,2.7,3.4,6.5,0.9c1.9-1.1,3.6-1.1,4.8-0.3l4.1,2.4l-2.8,4.5
					c-0.8,2.8-2.3,5.2-4.4,7.2l-2.4,4l-3.6-2.1c-0.2-0.1-0.4-0.2-0.6-0.4l0,0C0.5,15.1-0.1,13.6,0,12.1z"/>
				<path id="Path_6408" class="st2" d="M4,14.4c0,4.1,2.9,5.8,6.5,3.7c3.8-2.5,6.2-6.7,6.5-11.2c0-4.1-2.9-5.8-6.5-3.7
					C6.7,5.7,4.3,9.9,4,14.4z"/>
				
					<ellipse id="Ellipse_45" transform="matrix(0.5051 -0.8631 0.8631 0.5051 -3.8691 14.7562)" class="st3" cx="10.9" cy="10.8" rx="8.8" ry="5.1"/>
				<path id="Path_6409" class="st4" d="M6.1,13.4c0,2.9,2,4,4.5,2.6c2.7-1.7,4.3-4.6,4.5-7.8c0-2.9-2-4-4.5-2.6
					C8,7.3,6.3,10.2,6.1,13.4z"/>
				<path id="Path_6410" class="st5" d="M6.4,13c0,2.6,1.8,3.6,4.1,2.3c2.4-1.6,3.9-4.2,4.1-7.1c0-2.6-1.8-3.6-4.1-2.3
					C8.1,7.5,6.6,10.2,6.4,13z"/>
				<path id="Path_6411" class="st6" d="M6.8,12.8c0,2.3,1.7,3.3,3.7,2.1c2.2-1.4,3.5-3.8,3.7-6.4c0-2.3-1.6-3.3-3.7-2.1
					c-0.2,0.1-0.4,0.2-0.5,0.4C8.3,8.1,7.2,10,6.9,12.1C6.9,12.4,6.8,12.6,6.8,12.8z"/>
				<path id="Path_6412" class="st7" d="M9.2,14c2.1-1.3,3.4-3.6,3.5-6c0-0.7-0.2-1.4-0.7-2c1.3-0.1,2.2,0.9,2.2,2.6
					c-0.1,2.6-1.5,4.9-3.7,6.4c-1.5,0.9-2.8,0.6-3.3-0.5C7.9,14.5,8.6,14.4,9.2,14z"/>
				<path id="Path_6413" class="st8" d="M6.9,12.1c0.4,0.6,1.1,0.7,2,0.2c1.3-0.9,2.2-2.3,2.3-3.9c0-1-0.5-1.5-1.1-1.6
					C8.3,8.1,7.2,10,6.9,12.1z"/>
				<path id="Path_6414" class="st8" d="M10.5,7l1.7,1l-3.3,5.4l-1.7-1l1.1-2.7L10.5,7z"/>
				<path id="Path_6415" class="st9" d="M8.3,12c0,1.4,1,2,2.3,1.3c1.3-0.9,2.2-2.3,2.3-3.9c0-1.4-1-2-2.3-1.3
					C9.2,8.9,8.4,10.4,8.3,12z"/>
			</g>
			<path id="Path_6416" class="st1" d="M14.3,59.3c0,0.4-0.3,0.7-0.6,0.9c-1,0.5-2.1,0.5-3.1,0.1c-0.3-0.1-0.6-0.5-0.7-0.8h0v0
				l-1.4-59L12.9,0L14.3,59.3L14.3,59.3L14.3,59.3z"/>
			<g id="Group_36" transform="translate(6.806 54.156)">
				<path id="Path_6417" class="st1" d="M0,12.1C0.3,7.6,2.7,3.4,6.5,0.9c1.9-1.1,3.6-1.1,4.8-0.3l4.1,2.4l-2.8,4.5
					c-0.8,2.8-2.3,5.2-4.4,7.2l-2.4,4l-3.6-2.1c-0.2-0.1-0.4-0.2-0.6-0.4l0,0C0.5,15.1-0.1,13.6,0,12.1z"/>
				<path id="Path_6418" class="st2" d="M4,14.4c0,4.1,2.9,5.8,6.5,3.7c3.8-2.5,6.2-6.7,6.5-11.2c0-4.1-2.9-5.8-6.5-3.7
					C6.7,5.7,4.3,9.9,4,14.4z"/>
				<path id="Path_6419" class="st3" d="M4.7,14.4c0,4,2.8,5.6,6.3,3.6c3.7-2.4,6-6.4,6.3-10.8c0-4-2.8-5.6-6.3-3.6
					C7.2,6,4.9,10,4.7,14.4z"/>
				<path id="Path_6420" class="st4" d="M6.1,13.4c0,2.9,2,4,4.5,2.6c2.7-1.7,4.3-4.6,4.5-7.8c0-2.9-2-4-4.5-2.6
					C8,7.3,6.3,10.2,6.1,13.4z"/>
				<path id="Path_6421" class="st5" d="M6.4,13c0,2.6,1.8,3.6,4.1,2.3c2.4-1.6,3.9-4.2,4.1-7.1c0-2.6-1.8-3.6-4.1-2.3
					C8.1,7.5,6.6,10.2,6.4,13z"/>
				<path id="Path_6422" class="st6" d="M6.8,12.8c0,2.3,1.7,3.3,3.7,2.1c2.2-1.4,3.5-3.8,3.7-6.4c0-2.3-1.6-3.3-3.7-2.1
					c-0.2,0.1-0.4,0.2-0.5,0.4C8.3,8.1,7.2,10,6.9,12.1C6.9,12.4,6.8,12.6,6.8,12.8z"/>
				<path id="Path_6423" class="st7" d="M9.2,14c2.1-1.3,3.3-3.6,3.5-6c0-0.7-0.2-1.4-0.7-2c1.3-0.1,2.2,0.9,2.2,2.6
					c-0.1,2.6-1.5,4.9-3.7,6.4c-1.5,0.9-2.8,0.6-3.3-0.5C7.9,14.5,8.6,14.3,9.2,14z"/>
				<path id="Path_6424" class="st8" d="M6.9,12.1c0.4,0.6,1.1,0.7,2,0.2c1.3-0.9,2.2-2.3,2.3-3.9c0-1-0.5-1.5-1.1-1.6
					C8.3,8.1,7.2,10,6.9,12.1z"/>
				<path id="Path_6425" class="st8" d="M10.5,7l1.7,1l-3.3,5.4l-1.7-1l1.1-2.7L10.5,7z"/>
				<path id="Path_6426" class="st9" d="M8.3,12c0,1.4,1,2,2.3,1.3c1.3-0.9,2.2-2.3,2.3-3.9c0-1.4-1-2-2.3-1.3
					C9.2,8.9,8.4,10.4,8.3,12z"/>
			</g>
		</g>
		<g id="Group_40" transform="translate(446.291 204.359)">
			<g id="Group_38" transform="translate(0 50.187)">
				<path id="Path_6427" class="st1" d="M0,12.1C0.3,7.6,2.7,3.4,6.5,0.9c1.9-1.1,3.6-1.2,4.8-0.3l4.1,2.4l-2.8,4.5
					c-0.8,2.8-2.3,5.2-4.4,7.2l-2.4,4l-3.6-2.1c-0.2-0.1-0.4-0.2-0.6-0.4l0,0C0.5,15.1-0.1,13.6,0,12.1z"/>
				<path id="Path_6428" class="st2" d="M4,14.4c0,4.1,2.9,5.8,6.5,3.7c3.8-2.5,6.2-6.7,6.5-11.2c0-4.1-2.9-5.8-6.5-3.7
					C6.7,5.7,4.3,9.9,4,14.4z"/>
				<path id="Path_6429" class="st3" d="M4.7,14.4c0,4,2.8,5.6,6.3,3.6c3.7-2.4,6-6.4,6.3-10.8c0-4-2.8-5.6-6.3-3.6
					C7.2,6,4.9,10,4.7,14.4z"/>
				<path id="Path_6430" class="st4" d="M6.1,13.4c0,2.9,2,4,4.5,2.6c2.7-1.7,4.3-4.6,4.5-7.8c0-2.9-2-4-4.5-2.6
					C8,7.3,6.3,10.2,6.1,13.4z"/>
				<path id="Path_6431" class="st5" d="M6.4,13c0,2.6,1.8,3.6,4.1,2.3c2.4-1.6,3.9-4.2,4.1-7.1c0-2.6-1.8-3.6-4.1-2.3
					C8.1,7.5,6.6,10.2,6.4,13z"/>
				<path id="Path_6432" class="st6" d="M6.8,12.8c0,2.3,1.7,3.3,3.7,2.1c2.2-1.4,3.5-3.8,3.7-6.4c0-2.3-1.6-3.3-3.7-2.1
					c-0.2,0.1-0.4,0.2-0.5,0.4C8.3,8.1,7.2,10,6.9,12.1C6.9,12.4,6.8,12.6,6.8,12.8z"/>
				<path id="Path_6433" class="st7" d="M9.2,14c2.1-1.3,3.4-3.6,3.5-6c0-0.7-0.2-1.4-0.7-2c1.3-0.1,2.2,0.9,2.2,2.6
					c-0.1,2.6-1.5,4.9-3.7,6.4c-1.5,0.9-2.8,0.6-3.3-0.5C7.9,14.5,8.6,14.4,9.2,14z"/>
				<path id="Path_6434" class="st8" d="M6.9,12.1c0.4,0.6,1.1,0.7,2,0.2c1.3-0.9,2.2-2.3,2.3-3.9c0-1-0.5-1.5-1.1-1.6
					C8.3,8.1,7.2,10,6.9,12.1z"/>
				<path id="Path_6435" class="st8" d="M10.5,7l1.7,1l-3.3,5.4l-1.7-1l1.1-2.7L10.5,7z"/>
				<path id="Path_6436" class="st9" d="M8.3,12c0,1.4,1,2,2.3,1.3c1.3-0.9,2.2-2.3,2.3-3.9c0-1.4-1-2-2.3-1.3
					C9.2,8.9,8.4,10.4,8.3,12z"/>
			</g>
			<path id="Path_6437" class="st1" d="M14.3,59.3c0,0.4-0.3,0.7-0.6,0.9c-1,0.5-2.1,0.5-3.1,0.1c-0.3-0.1-0.6-0.5-0.7-0.8h0v0
				l-1.4-59L12.9,0L14.3,59.3L14.3,59.3L14.3,59.3z"/>
			<g id="Group_39" transform="translate(6.806 54.156)">
				<path id="Path_6438" class="st1" d="M0,12.1C0.3,7.6,2.7,3.4,6.5,0.9c1.9-1.1,3.6-1.2,4.8-0.3l4.1,2.4l-2.8,4.5
					c-0.8,2.8-2.3,5.3-4.4,7.2l-2.4,3.9l-3.6-2.1c-0.2-0.1-0.4-0.2-0.6-0.4l0,0C0.5,15.1-0.1,13.6,0,12.1z"/>
				<path id="Path_6439" class="st2" d="M4,14.4c0,4.1,2.9,5.8,6.5,3.7c3.8-2.5,6.2-6.7,6.5-11.2c0-4.1-2.9-5.8-6.5-3.7
					C6.7,5.7,4.3,9.9,4,14.4z"/>
				<path id="Path_6440" class="st3" d="M4.7,14.4c0,4,2.8,5.6,6.3,3.6c3.7-2.4,6-6.4,6.3-10.8c0-4-2.8-5.6-6.3-3.6
					C7.2,6,4.9,10,4.7,14.4z"/>
				<path id="Path_6441" class="st4" d="M6.1,13.4c0,2.9,2,4,4.5,2.6c2.7-1.7,4.3-4.6,4.5-7.8c0-2.9-2-4-4.5-2.6
					C8,7.3,6.3,10.2,6.1,13.4z"/>
				<path id="Path_6442" class="st5" d="M6.4,13c0,2.6,1.8,3.6,4.1,2.3c2.4-1.6,3.9-4.2,4.1-7.1c0-2.6-1.8-3.6-4.1-2.3
					C8.1,7.5,6.6,10.2,6.4,13z"/>
				<path id="Path_6443" class="st6" d="M6.8,12.8c0,2.3,1.7,3.3,3.7,2.1c2.2-1.4,3.5-3.8,3.7-6.4c0-2.3-1.6-3.3-3.7-2.1
					c-0.2,0.1-0.4,0.2-0.5,0.4C8.3,8.1,7.2,10,6.9,12.1C6.9,12.3,6.8,12.6,6.8,12.8z"/>
				<path id="Path_6444" class="st7" d="M9.2,14c2.1-1.3,3.4-3.6,3.5-6c0.1-0.7-0.2-1.4-0.7-2c1.3-0.1,2.2,0.9,2.2,2.6
					c-0.1,2.6-1.5,4.9-3.7,6.4c-1.5,0.9-2.8,0.6-3.3-0.5C7.9,14.5,8.6,14.4,9.2,14z"/>
				<path id="Path_6445" class="st8" d="M6.9,12.1c0.4,0.6,1.1,0.7,2,0.2c1.3-0.9,2.2-2.3,2.3-3.9c0-1-0.5-1.5-1.1-1.6
					C8.3,8.1,7.2,10,6.9,12.1z"/>
				<path id="Path_6446" class="st8" d="M10.5,7l1.7,1l-3.3,5.4l-1.7-1l1.1-2.7L10.5,7z"/>
				<path id="Path_6447" class="st9" d="M8.3,12c0,1.4,1,2,2.3,1.3c1.3-0.9,2.2-2.3,2.3-3.9c0-1.4-1-2-2.3-1.3
					C9.2,8.9,8.4,10.4,8.3,12z"/>
			</g>
		</g>
		<g id="Group_43" transform="translate(346.357 289.917)">
			<g id="Group_41" transform="translate(0 50.184)">
				<path id="Path_6448" class="st1" d="M0,12.1C0.3,7.6,2.7,3.4,6.5,0.9c1.9-1.1,3.6-1.2,4.8-0.3l4.1,2.4l-2.8,4.5
					c-0.8,2.8-2.3,5.3-4.4,7.2l-2.4,3.9l-3.6-2.1c-0.2-0.1-0.4-0.2-0.6-0.4l0,0C0.5,15.1-0.1,13.6,0,12.1z"/>
				<path id="Path_6449" class="st2" d="M4,14.4c0,4.1,2.9,5.8,6.5,3.7c3.8-2.5,6.2-6.7,6.5-11.2c0-4.1-2.9-5.8-6.5-3.7
					C6.7,5.7,4.3,9.9,4,14.4z"/>
				<path id="Path_6450" class="st3" d="M4.7,14.4c0,4,2.8,5.6,6.3,3.6c3.7-2.4,6-6.4,6.3-10.8c0-4-2.8-5.6-6.3-3.6
					C7.2,6,4.9,10,4.7,14.4z"/>
				<path id="Path_6451" class="st4" d="M6.1,13.4c0,2.9,2,4,4.5,2.6c2.7-1.7,4.3-4.6,4.5-7.8c0-2.9-2-4-4.5-2.6
					C8,7.3,6.3,10.2,6.1,13.4z"/>
				<path id="Path_6452" class="st5" d="M6.4,13c0,2.6,1.8,3.6,4.1,2.3c2.4-1.6,3.9-4.2,4.1-7.1c0-2.6-1.8-3.6-4.1-2.3
					C8.1,7.5,6.6,10.2,6.4,13z"/>
				<path id="Path_6453" class="st6" d="M6.8,12.8c0,2.3,1.7,3.3,3.7,2.1c2.2-1.4,3.5-3.8,3.7-6.4c0-2.3-1.6-3.3-3.7-2.1
					c-0.2,0.1-0.4,0.2-0.5,0.4C8.3,8.1,7.2,10,6.9,12.1C6.9,12.4,6.8,12.6,6.8,12.8z"/>
				<path id="Path_6454" class="st7" d="M9.2,14c2.1-1.3,3.4-3.6,3.5-6c0-0.7-0.2-1.4-0.7-2c1.3-0.1,2.2,0.9,2.2,2.6
					c-0.1,2.6-1.5,4.9-3.7,6.4c-1.5,0.9-2.8,0.6-3.3-0.5C7.9,14.5,8.6,14.3,9.2,14z"/>
				<path id="Path_6455" class="st8" d="M6.9,12.1c0.4,0.6,1.1,0.7,2,0.2c1.3-0.9,2.2-2.3,2.3-3.9c0-1-0.5-1.5-1.1-1.6
					C8.3,8.1,7.2,10,6.9,12.1z"/>
				<path id="Path_6456" class="st8" d="M10.5,7l1.7,1l-3.3,5.4l-1.7-1l1.1-2.7L10.5,7z"/>
				<path id="Path_6457" class="st9" d="M8.3,12c0,1.4,1,2,2.3,1.3c1.3-0.9,2.2-2.3,2.3-3.9c0-1.4-1-2-2.3-1.3
					C9.2,8.9,8.4,10.4,8.3,12z"/>
			</g>
			<path id="Path_6458" class="st1" d="M14.3,59.3c0,0.4-0.3,0.7-0.6,0.9c-1,0.5-2.1,0.5-3.1,0.1c-0.3-0.2-0.6-0.5-0.7-0.8h0v0
				l-1.4-59L12.9,0L14.3,59.3L14.3,59.3L14.3,59.3z"/>
			<g id="Group_42" transform="translate(6.806 54.153)">
				<path id="Path_6459" class="st1" d="M0,12.1C0.3,7.6,2.7,3.4,6.5,0.9c1.9-1.1,3.6-1.2,4.8-0.3l4.1,2.4l-2.8,4.5
					c-0.8,2.8-2.3,5.3-4.4,7.2l-2.4,3.9l-3.6-2.1c-0.2-0.1-0.4-0.2-0.6-0.4l0,0C0.5,15.1-0.1,13.6,0,12.1z"/>
				<path id="Path_6460" class="st2" d="M4,14.4c0,4.1,2.9,5.8,6.5,3.7c3.8-2.5,6.2-6.7,6.5-11.2c0-4.1-2.9-5.8-6.5-3.7
					C6.7,5.7,4.3,9.9,4,14.4z"/>
				<path id="Path_6461" class="st3" d="M4.7,14.4c0,4,2.8,5.6,6.3,3.6c3.7-2.4,6-6.4,6.3-10.8c0-4-2.8-5.6-6.3-3.6
					C7.2,6,4.9,10,4.7,14.4z"/>
				<path id="Path_6462" class="st4" d="M6.1,13.4c0,2.9,2,4,4.5,2.6c2.7-1.7,4.3-4.6,4.5-7.8c0-2.9-2-4-4.5-2.6
					C8,7.3,6.3,10.2,6.1,13.4z"/>
				<path id="Path_6463" class="st5" d="M6.4,13c0,2.6,1.8,3.6,4.1,2.3c2.4-1.6,3.9-4.2,4.1-7.1c0-2.6-1.8-3.6-4.1-2.3
					C8.1,7.5,6.6,10.2,6.4,13z"/>
				<path id="Path_6464" class="st6" d="M6.8,12.8c0,2.3,1.7,3.3,3.7,2.1c2.2-1.4,3.5-3.8,3.7-6.4c0-2.3-1.6-3.3-3.7-2.1
					c-0.2,0.1-0.4,0.2-0.5,0.4C8.3,8.1,7.2,10,6.9,12.1C6.9,12.4,6.8,12.6,6.8,12.8z"/>
				<path id="Path_6465" class="st7" d="M9.2,14c2.1-1.3,3.3-3.6,3.5-6c0.1-0.7-0.2-1.4-0.7-2c1.3-0.1,2.2,0.9,2.2,2.6
					c-0.1,2.6-1.5,4.9-3.7,6.4c-1.5,0.9-2.8,0.6-3.3-0.5C7.9,14.5,8.6,14.4,9.2,14z"/>
				<path id="Path_6466" class="st8" d="M6.9,12.1c0.4,0.6,1.1,0.7,2,0.2c1.3-0.9,2.2-2.3,2.3-3.9c0-1-0.5-1.5-1.1-1.6
					C8.3,8.1,7.2,10,6.9,12.1z"/>
				<path id="Path_6467" class="st8" d="M10.5,7l1.7,1l-3.3,5.4l-1.7-1l1.1-2.7L10.5,7z"/>
				<path id="Path_6468" class="st9" d="M8.3,12c0,1.4,1,2,2.3,1.3c1.3-0.9,2.2-2.3,2.3-3.9c0-1.4-1-2-2.3-1.3
					C9.2,8.9,8.4,10.4,8.3,12z"/>
			</g>
		</g>
		<g id="Group_46" transform="translate(371.75 304.035)">
			<g id="Group_44" transform="translate(0 50.187)">
				<path id="Path_6469" class="st1" d="M0,12.1C0.3,7.6,2.7,3.4,6.5,0.9c1.9-1.1,3.6-1.1,4.8-0.3l4.1,2.4l-2.8,4.5
					c-0.8,2.8-2.3,5.2-4.4,7.2l-2.4,4l-3.6-2.1c-0.2-0.1-0.4-0.2-0.6-0.4l0,0C0.4,15.1-0.1,13.6,0,12.1z"/>
				<path id="Path_6470" class="st2" d="M4,14.4c0,4.1,2.9,5.8,6.5,3.7c3.8-2.5,6.2-6.7,6.5-11.2c0-4.1-2.9-5.8-6.5-3.7
					C6.7,5.7,4.3,9.9,4,14.4z"/>
				<path id="Path_6471" class="st3" d="M4.7,14.4c0,4,2.8,5.6,6.3,3.6c3.7-2.4,6-6.4,6.3-10.8c0-4-2.8-5.6-6.3-3.6
					C7.2,6,4.9,10,4.7,14.4z"/>
				<path id="Path_6472" class="st4" d="M6.1,13.4c0,2.9,2,4,4.5,2.6c2.7-1.7,4.3-4.6,4.5-7.8c0-2.9-2-4-4.5-2.6
					C8,7.3,6.3,10.2,6.1,13.4z"/>
				<path id="Path_6473" class="st5" d="M6.4,13c0,2.6,1.8,3.6,4.1,2.3c2.4-1.6,3.9-4.2,4.1-7.1c0-2.6-1.8-3.6-4.1-2.3
					C8.1,7.5,6.6,10.2,6.4,13z"/>
				<path id="Path_6474" class="st6" d="M6.8,12.8c0,2.3,1.7,3.3,3.7,2.1c2.2-1.4,3.5-3.8,3.7-6.4c0-2.3-1.7-3.3-3.7-2.1
					c-0.2,0.1-0.4,0.2-0.5,0.4C8.3,8.1,7.2,10,6.9,12.1C6.9,12.3,6.8,12.6,6.8,12.8z"/>
				<path id="Path_6475" class="st7" d="M9.2,14c2.1-1.3,3.3-3.6,3.5-6c0.1-0.7-0.2-1.4-0.7-2c1.3-0.1,2.2,0.9,2.2,2.6
					c-0.1,2.6-1.5,4.9-3.7,6.4c-1.5,0.9-2.8,0.6-3.3-0.5C7.9,14.5,8.6,14.3,9.2,14z"/>
				<path id="Path_6476" class="st8" d="M6.9,12.1c0.4,0.6,1.1,0.7,2,0.2c1.3-0.9,2.2-2.3,2.3-3.9c0-1-0.5-1.5-1.1-1.6
					C8.3,8.1,7.2,10,6.9,12.1z"/>
				<path id="Path_6477" class="st8" d="M10.5,7l1.7,1l-3.3,5.4l-1.7-1l1.1-2.7L10.5,7z"/>
				<path id="Path_6478" class="st9" d="M8.3,12c0,1.4,1,2,2.3,1.3c1.3-0.9,2.2-2.3,2.3-3.9c0-1.4-1-2-2.3-1.3
					C9.2,8.9,8.4,10.4,8.3,12z"/>
			</g>
			<path id="Path_6479" class="st1" d="M14.3,59.3c0,0.4-0.3,0.7-0.6,0.9c-1,0.5-2.1,0.5-3.1,0.1c-0.3-0.2-0.6-0.5-0.7-0.8h0v0
				l-1.4-59L12.9,0L14.3,59.3L14.3,59.3L14.3,59.3L14.3,59.3z"/>
			<g id="Group_45" transform="translate(6.806 54.156)">
				<path id="Path_6480" class="st1" d="M0,12.1C0.3,7.6,2.7,3.4,6.5,0.9c1.9-1.1,3.6-1.1,4.8-0.3l4.1,2.4l-2.8,4.5
					c-0.8,2.8-2.3,5.2-4.4,7.2l-2.4,4l-3.6-2.1c-0.2-0.1-0.4-0.2-0.6-0.4l0,0C0.5,15.1-0.1,13.6,0,12.1z"/>
				<path id="Path_6481" class="st2" d="M4,14.4c0,4.1,2.9,5.8,6.5,3.7c3.8-2.5,6.3-6.7,6.5-11.2c0-4.1-2.9-5.8-6.5-3.7
					C6.7,5.7,4.3,9.9,4,14.4z"/>
				<path id="Path_6482" class="st3" d="M4.7,14.4c0,4,2.8,5.6,6.3,3.6c3.7-2.4,6-6.4,6.3-10.8c0-4-2.8-5.6-6.3-3.6
					C7.2,6,4.9,10,4.7,14.4z"/>
				<path id="Path_6483" class="st4" d="M6.1,13.4c0,2.9,2,4,4.5,2.6c2.7-1.7,4.3-4.6,4.5-7.8c0-2.9-2-4-4.5-2.6
					C8,7.3,6.3,10.2,6.1,13.4z"/>
				<path id="Path_6484" class="st5" d="M6.4,13c0,2.6,1.8,3.6,4.1,2.3c2.4-1.6,3.9-4.2,4.1-7.1c0-2.6-1.8-3.6-4.1-2.3
					C8.1,7.5,6.6,10.2,6.4,13z"/>
				<path id="Path_6485" class="st6" d="M6.8,12.8c0,2.3,1.6,3.3,3.7,2.1c2.2-1.4,3.5-3.8,3.7-6.4c0-2.3-1.6-3.3-3.7-2.1
					c-0.2,0.1-0.4,0.2-0.5,0.4C8.3,8.1,7.2,10,6.9,12.1C6.9,12.4,6.8,12.6,6.8,12.8z"/>
				<path id="Path_6486" class="st7" d="M9.2,14c2.1-1.3,3.3-3.6,3.5-6c0.1-0.7-0.2-1.4-0.7-2c1.3-0.1,2.2,0.9,2.2,2.6
					c-0.1,2.6-1.5,4.9-3.7,6.4c-1.5,0.9-2.8,0.6-3.3-0.5C7.9,14.5,8.6,14.3,9.2,14z"/>
				<path id="Path_6487" class="st8" d="M6.9,12.1c0.4,0.6,1.1,0.7,2,0.2c1.3-0.9,2.2-2.3,2.3-3.9c0-1-0.5-1.5-1.1-1.6
					C8.3,8.1,7.2,10,6.9,12.1z"/>
				<path id="Path_6488" class="st8" d="M10.5,7l1.7,1l-3.3,5.4l-1.7-1l1.1-2.7L10.5,7z"/>
				<path id="Path_6489" class="st9" d="M8.3,12c0,1.4,1,2,2.3,1.3c1.3-0.9,2.2-2.3,2.3-3.9c0-1.4-1-2-2.3-1.3
					C9.2,8.9,8.4,10.4,8.3,12z"/>
			</g>
		</g>
		<g id="Group_49" transform="translate(220.486 214.806)">
			<g id="Group_47" transform="translate(0 50.187)">
				<path id="Path_6490" class="st1" d="M0,12.1C0.3,7.6,2.7,3.4,6.5,0.9c1.9-1.1,3.6-1.2,4.8-0.3l4.1,2.4l-2.8,4.5
					c-0.8,2.8-2.3,5.3-4.4,7.2l-2.4,3.9l-3.6-2.1c-0.2-0.1-0.4-0.2-0.6-0.4l0,0C0.5,15.1-0.1,13.6,0,12.1z"/>
				<path id="Path_6491" class="st2" d="M4,14.4c0,4.1,2.9,5.8,6.5,3.7c3.8-2.5,6.3-6.7,6.5-11.2c0-4.1-2.9-5.8-6.5-3.7
					C6.7,5.7,4.3,9.9,4,14.4z"/>
				<path id="Path_6492" class="st3" d="M4.7,14.4c0,4,2.8,5.6,6.3,3.6c3.7-2.4,6-6.4,6.3-10.8c0-4-2.8-5.6-6.3-3.6
					C7.2,6,4.9,10,4.7,14.4z"/>
				<path id="Path_6493" class="st4" d="M6.1,13.4c0,2.9,2,4,4.5,2.6c2.7-1.7,4.3-4.6,4.5-7.8c0-2.9-2-4-4.5-2.6
					C8,7.3,6.3,10.2,6.1,13.4z"/>
				<path id="Path_6494" class="st5" d="M6.4,13c0,2.6,1.8,3.6,4.1,2.3c2.4-1.6,3.9-4.2,4.1-7.1c0-2.6-1.8-3.6-4.1-2.3
					C8.1,7.5,6.6,10.2,6.4,13z"/>
				<path id="Path_6495" class="st6" d="M6.8,12.8c0,2.3,1.7,3.3,3.7,2.1c2.2-1.4,3.5-3.8,3.7-6.4c0-2.3-1.6-3.3-3.7-2.1
					c-0.2,0.1-0.4,0.2-0.5,0.4C8.3,8.1,7.2,10,6.9,12.1C6.9,12.4,6.8,12.6,6.8,12.8z"/>
				<path id="Path_6496" class="st7" d="M9.2,14c2.1-1.3,3.4-3.6,3.5-6c0-0.7-0.2-1.4-0.7-2c1.3-0.1,2.2,0.9,2.2,2.6
					c-0.1,2.6-1.5,4.9-3.7,6.4c-1.5,0.9-2.8,0.6-3.3-0.5C7.9,14.5,8.6,14.4,9.2,14z"/>
				<path id="Path_6497" class="st8" d="M6.9,12.1c0.4,0.6,1.1,0.7,2,0.2c1.3-0.9,2.2-2.3,2.3-3.9c0-1-0.5-1.5-1.1-1.6
					C8.3,8.1,7.2,10,6.9,12.1z"/>
				<path id="Path_6498" class="st8" d="M10.5,7l1.7,1l-3.3,5.4l-1.7-1l1.1-2.7L10.5,7z"/>
				<path id="Path_6499" class="st9" d="M8.3,12c0,1.4,1,2,2.3,1.3c1.3-0.9,2.2-2.3,2.3-3.9c0-1.4-1-2-2.3-1.3
					C9.2,8.9,8.4,10.4,8.3,12z"/>
			</g>
			<path id="Path_6500" class="st1" d="M14.3,59.3c0,0.4-0.3,0.7-0.6,0.9c-1,0.5-2.1,0.5-3.1,0.1c-0.3-0.1-0.6-0.5-0.7-0.8h0v0
				l-1.4-59L12.9,0L14.3,59.3L14.3,59.3L14.3,59.3z"/>
			<g id="Group_48" transform="translate(6.806 54.156)">
				<path id="Path_6501" class="st1" d="M0,12.1C0.3,7.6,2.7,3.4,6.5,0.9c1.9-1.1,3.6-1.2,4.8-0.3l4.1,2.4l-2.8,4.5
					c-0.8,2.8-2.3,5.3-4.4,7.2l-2.4,3.9l-3.6-2.1c-0.2-0.1-0.4-0.2-0.6-0.4l0,0C0.5,15.1-0.1,13.6,0,12.1z"/>
				<path id="Path_6502" class="st2" d="M4,14.4c0,4.1,2.9,5.8,6.5,3.7c3.8-2.5,6.2-6.7,6.5-11.2c0-4.1-2.9-5.8-6.5-3.7
					C6.7,5.7,4.3,9.9,4,14.4z"/>
				<path id="Path_6503" class="st3" d="M4.7,14.4c0,4,2.8,5.6,6.3,3.6c3.7-2.4,6-6.4,6.3-10.8c0-4-2.8-5.6-6.3-3.6
					C7.2,6,4.9,10,4.7,14.4z"/>
				<path id="Path_6504" class="st4" d="M6.1,13.4c0,2.9,2,4,4.5,2.6c2.7-1.7,4.3-4.6,4.5-7.8c0-2.9-2-4-4.5-2.6
					C8,7.3,6.3,10.2,6.1,13.4z"/>
				<path id="Path_6505" class="st5" d="M6.4,13c0,2.6,1.8,3.6,4.1,2.3c2.4-1.6,3.9-4.2,4.1-7.1c0-2.6-1.8-3.6-4.1-2.3
					C8.1,7.5,6.6,10.2,6.4,13z"/>
				<path id="Path_6506" class="st6" d="M6.8,12.8c0,2.3,1.7,3.3,3.7,2.1c2.2-1.4,3.5-3.8,3.7-6.4c0-2.3-1.6-3.3-3.7-2.1
					c-0.2,0.1-0.4,0.2-0.5,0.4C8.3,8.1,7.2,10,6.9,12.1C6.9,12.4,6.8,12.6,6.8,12.8z"/>
				<path id="Path_6507" class="st7" d="M9.2,14c2.1-1.3,3.4-3.6,3.5-6c0.1-0.7-0.2-1.4-0.7-2c1.3-0.1,2.2,0.9,2.2,2.6
					c-0.1,2.6-1.5,4.9-3.7,6.4c-1.5,0.9-2.8,0.6-3.3-0.5C7.9,14.5,8.6,14.3,9.2,14z"/>
				<path id="Path_6508" class="st8" d="M6.9,12.1c0.4,0.6,1.1,0.7,2,0.2c1.3-0.9,2.2-2.3,2.3-3.9c0-1-0.5-1.5-1.1-1.6
					C8.3,8.1,7.2,10,6.9,12.1z"/>
				<path id="Path_6509" class="st8" d="M10.5,7l1.7,1l-3.3,5.4l-1.7-1l1.1-2.7L10.5,7z"/>
				<path id="Path_6510" class="st9" d="M8.3,12c0,1.4,1,2,2.3,1.3c1.3-0.9,2.2-2.3,2.3-3.9c0-1.4-1-2-2.3-1.3
					C9.2,8.9,8.4,10.4,8.3,12z"/>
			</g>
		</g>
		<g id="Group_52" transform="translate(245.878 228.927)">
			<g id="Group_50" transform="translate(0 50.187)">
				<path id="Path_6511" class="st1" d="M0,12.1C0.3,7.6,2.7,3.4,6.5,0.9c1.9-1.1,3.6-1.1,4.8-0.3l4.1,2.4l-2.8,4.5
					c-0.8,2.8-2.3,5.2-4.4,7.2l-2.4,3.9l-3.6-2.1c-0.2-0.1-0.4-0.2-0.6-0.4l0,0C0.5,15.1-0.1,13.6,0,12.1z"/>
				<path id="Path_6512" class="st2" d="M4,14.4c0,4.1,2.9,5.8,6.5,3.7c3.8-2.5,6.3-6.7,6.5-11.2c0-4.1-2.9-5.8-6.5-3.7
					C6.7,5.7,4.3,9.9,4,14.4z"/>
				<path id="Path_6513" class="st3" d="M4.7,14.4c0,4,2.8,5.6,6.3,3.6c3.7-2.4,6-6.4,6.3-10.8c0-4-2.8-5.6-6.3-3.6
					C7.2,6,4.9,10,4.7,14.4z"/>
				<path id="Path_6514" class="st4" d="M6.1,13.4c0,2.9,2,4,4.5,2.6c2.7-1.7,4.3-4.6,4.5-7.8c0-2.9-2-4-4.5-2.6
					C8,7.3,6.3,10.2,6.1,13.4z"/>
				<path id="Path_6515" class="st5" d="M6.4,13c0,2.6,1.8,3.6,4.1,2.3c2.4-1.6,3.9-4.2,4.1-7.1c0-2.6-1.8-3.6-4.1-2.3
					C8.1,7.5,6.6,10.2,6.4,13z"/>
				<path id="Path_6516" class="st6" d="M6.8,12.8c0,2.3,1.7,3.3,3.7,2.1c2.2-1.4,3.5-3.8,3.7-6.4c0-2.3-1.6-3.3-3.7-2.1
					c-0.2,0.1-0.4,0.2-0.5,0.4C8.3,8.1,7.2,10,6.9,12.1C6.9,12.4,6.8,12.6,6.8,12.8z"/>
				<path id="Path_6517" class="st7" d="M9.2,14c2.1-1.3,3.4-3.6,3.5-6c0.1-0.7-0.2-1.4-0.7-2c1.3-0.1,2.2,0.9,2.2,2.6
					c-0.1,2.6-1.5,4.9-3.7,6.4c-1.5,0.9-2.8,0.6-3.3-0.5C7.9,14.5,8.6,14.3,9.2,14z"/>
				<path id="Path_6518" class="st8" d="M6.9,12.1c0.4,0.6,1.1,0.7,2,0.2c1.3-0.9,2.2-2.3,2.3-3.9c0-1-0.5-1.5-1.1-1.6
					C8.3,8.1,7.2,10,6.9,12.1z"/>
				<path id="Path_6519" class="st8" d="M10.5,7l1.7,1l-3.3,5.4l-1.7-1l1.1-2.7L10.5,7z"/>
				<path id="Path_6520" class="st9" d="M8.3,12c0,1.4,1,2,2.3,1.3c1.3-0.9,2.2-2.3,2.3-3.9c0-1.4-1-2-2.3-1.3
					C9.2,9,8.4,10.4,8.3,12z"/>
			</g>
			<path id="Path_6521" class="st1" d="M14.3,59.3c0,0.4-0.3,0.7-0.6,0.9c-1,0.5-2.1,0.5-3.1,0.1c-0.3-0.1-0.6-0.5-0.6-0.8h0v0
				l-1.4-59L12.9,0L14.3,59.3L14.3,59.3L14.3,59.3L14.3,59.3z"/>
			<g id="Group_51" transform="translate(6.806 54.155)">
				<path id="Path_6522" class="st1" d="M0,12.1C0.3,7.6,2.7,3.4,6.5,0.9c1.9-1.1,3.6-1.2,4.8-0.3l4.1,2.4l-2.8,4.5
					c-0.8,2.8-2.3,5.3-4.4,7.2l-2.4,3.9l-3.6-2.1c-0.2-0.1-0.4-0.2-0.6-0.4l0,0C0.5,15.1-0.1,13.6,0,12.1z"/>
				<path id="Path_6523" class="st2" d="M4,14.4c0,4.1,2.9,5.8,6.5,3.7c3.8-2.5,6.2-6.7,6.5-11.2c0-4.1-2.9-5.8-6.5-3.7
					C6.7,5.7,4.3,9.9,4,14.4z"/>
				<path id="Path_6524" class="st3" d="M4.7,14.4c0,4,2.8,5.6,6.3,3.6c3.7-2.4,6-6.4,6.3-10.8c0-4-2.8-5.6-6.3-3.6
					C7.2,6,4.9,10,4.7,14.4z"/>
				<path id="Path_6525" class="st4" d="M6.1,13.4c0,2.9,2,4,4.5,2.6c2.7-1.7,4.3-4.6,4.5-7.8c0-2.9-2-4-4.5-2.6
					C8,7.3,6.3,10.2,6.1,13.4z"/>
				<path id="Path_6526" class="st5" d="M6.4,13c0,2.6,1.8,3.6,4.1,2.3c2.4-1.6,3.9-4.2,4.1-7.1c0-2.6-1.8-3.6-4.1-2.3
					C8.1,7.5,6.6,10.2,6.4,13z"/>
				<path id="Path_6527" class="st6" d="M6.8,12.8c0,2.3,1.6,3.3,3.7,2.1c2.2-1.4,3.5-3.8,3.7-6.4c0-2.3-1.7-3.3-3.7-2.1
					c-0.2,0.1-0.4,0.2-0.5,0.4C8.3,8.1,7.2,10,6.9,12.1C6.9,12.4,6.8,12.6,6.8,12.8z"/>
				<path id="Path_6528" class="st7" d="M9.2,14c2.1-1.3,3.4-3.6,3.5-6c0-0.7-0.2-1.4-0.7-2c1.3-0.1,2.2,0.9,2.2,2.6
					c-0.1,2.6-1.5,4.9-3.7,6.4c-1.5,0.9-2.8,0.6-3.3-0.5C7.9,14.5,8.6,14.3,9.2,14z"/>
				<path id="Path_6529" class="st8" d="M6.9,12.1c0.4,0.6,1.1,0.7,2,0.2c1.3-0.9,2.2-2.3,2.3-3.9c0-1-0.5-1.5-1.1-1.6
					C8.3,8.1,7.2,10,6.9,12.1z"/>
				<path id="Path_6530" class="st8" d="M10.5,7l1.7,1l-3.3,5.4l-1.7-1l1.1-2.7L10.5,7z"/>
				<path id="Path_6531" class="st9" d="M8.3,12c0,1.4,1,2,2.3,1.3c1.3-0.9,2.2-2.3,2.3-3.9c0-1.4-1-2-2.3-1.3
					C9.2,8.9,8.4,10.4,8.3,12z"/>
			</g>
		</g>
		<path id="Path_6532" class="st10" d="M508.8,152.5l-8.1-11l-45.4-64.8l-1.7-5.7l115.3,46.7L508.8,152.5z"/>
		<path id="Path_6533" class="st11" d="M508.8,149.3l-8.1-11l-47.1-67.2l23.6-18.2l91.7,61.7L508.8,149.3z"/>
		<path id="Path_6534" class="st12" d="M484.8,58l-13.1,13.1l54.7,71.9l22.4-42L484.8,58z"/>
		<path id="Path_6535" class="st13" d="M535.2,91.9c0,0-33,17.3-34.2,17.7c-1.2,0.4-11.5,12.6-11.5,12.6l19.3,27.1l60.1-34.7
			L535.2,91.9z"/>
		<g id="Group_76" transform="translate(138.37 202.016)">
			<path id="Path_6536" class="st14" d="M91.6,26.7c0-8.2-5.8-18.1-12.9-22.2c-2.1-1.4-4.7-2-7.2-1.6l0,0l-6.9,1.5l1.9,3.3
				c-0.4,1.3-0.6,2.7-0.6,4.1c0,8.2,5.8,18.1,12.9,22.2c1.1,0.7,2.4,1.2,3.6,1.5l2.1,3.6l4.9-5.4l0,0C90.7,32.2,91.6,29.8,91.6,26.7
				z"/>
			<path id="Path_6537" class="st15" d="M86.9,31.3c0-9.2-6.5-20.4-14.5-25c-3.3-1.9-6.4-2.4-8.8-1.7l0,0l-7.7,2.2l2.4,4.1
				c-0.3,1.2-0.4,2.4-0.4,3.6c0,9.2,6.5,20.4,14.5,25c1.1,0.7,2.3,1.2,3.6,1.5l2.4,4l5.7-5.5C85.8,37.9,86.9,35.1,86.9,31.3z"/>
			<path id="Path_6538" class="st16" d="M77.9,45.7c1.7-2,2.8-4.9,2.8-8.8c0-10.3-7.3-22.8-16.2-27.9c-3.4-2-6.6-2.6-9.2-2l0,0l0,0
				C55,7,54.9,7,54.7,7.1l-22.4,5.6l29.5,49.7l15.6-16.2C77.6,46,77.7,45.8,77.9,45.7L77.9,45.7L77.9,45.7z"/>
			<path id="Path_6539" class="st16" d="M65.5,50.9c0-13.2-9.3-29.2-20.8-35.8c-5.8-3.3-11-3.6-14.8-1.4l0,0c0,0-12,3-23,15.2
				c-9.5,10.6,14.8,52.8,27.9,48.1c16.8-6.1,24.7-12.7,24.8-12.8l0,0l0,0C63.3,61.8,65.5,57.3,65.5,50.9z"/>
			<path id="Path_6540" class="st17" d="M42.9,63c0-12.5-8.9-27.8-19.8-34.1c-5.5-3.2-10.5-3.5-14.1-1.4l0,0l-3.2,1.9L6.2,30
				c-1.8,2.4-2.9,5.8-2.9,10.1c0,12.5,8.9,27.8,19.8,34.1c3.9,2.2,7.5,3,10.5,2.6l0.4,0.6l3-1.7c0.1-0.1,0.3-0.1,0.4-0.2l0,0l0,0
				C40.8,73.4,42.9,69.1,42.9,63z"/>
			<path id="Path_6541" class="st17" d="M91.5,26.7c0,0.6,0,1.2-0.1,1.8c-0.1,0.8-0.3,1.5-0.5,2.3c-0.3,1.1-0.9,2.1-1.7,2.9
				l-4.9,5.4l0,0c-0.1,0.2-0.3,0.3-0.4,0.4l-5.7,5.5l0,0c-0.1,0.2-0.3,0.3-0.4,0.5l0,0c-0.2,0.2-0.3,0.3-0.5,0.5L61.8,62.3l0,0
				c-0.6,0.7-1.3,1.2-2.1,1.7l0,0c-0.1,0.1-7.9,6.7-24.5,12.7l-0.1,0.1L34,77.5l-0.2-0.3c-1.2,0.2-2.5,0.1-3.6-0.3
				c-0.2,0-0.3,0-0.5-0.1c-0.5-0.1-0.9-0.2-1.4-0.3l5.2-21.2c11-2.6,21.4-7.1,30.8-13.4c11.1-7.5,21.3-17.5,26-22.4
				c0.3,0.9,0.6,1.9,0.8,2.9C91.4,23.7,91.5,25.2,91.5,26.7z"/>
			<path id="Path_6542" class="st10" d="M91.5,26.7c0,0.6,0,1.2-0.1,1.8c-0.1,0.8-0.3,1.5-0.5,2.3c-0.3,1.1-0.9,2.1-1.7,2.9
				l-4.9,5.4l0,0c-0.1,0.2-0.3,0.3-0.4,0.4l-5.7,5.5l0,0c-0.1,0.2-0.3,0.3-0.4,0.5l0,0c-0.2,0.2-0.3,0.3-0.5,0.5L61.8,62.3l0,0
				c-0.6,0.7-1.3,1.2-2.1,1.7l0,0c-0.1,0.1-7.9,6.7-24.5,12.7l-0.1,0.1L34,77.5l-0.2-0.3c-1.2,0.2-2.5,0.1-3.6-0.3
				c-0.2,0-0.3,0-0.5-0.1c1-4.7,2.2-9.3,3.6-13.8c0,0,15-3,32-15.8C73.4,41,85.8,28,91,22.3C91.4,23.7,91.5,25.2,91.5,26.7z"/>
			<path id="Path_6543" class="st18" d="M91.4,28.6c-0.1,0.8-0.3,1.5-0.5,2.3c-0.3,1.1-0.9,2.1-1.7,2.9l-4.9,5.4l0,0
				c-0.1,0.2-0.3,0.3-0.4,0.4l-5.7,5.5l0,0c-0.1,0.2-0.3,0.3-0.4,0.5l0,0c-0.2,0.2-0.3,0.3-0.5,0.5L61.8,62.3l0,0
				c-0.6,0.7-1.3,1.2-2.1,1.7l0,0c-0.1,0.1-7.9,6.7-24.5,12.7l-0.1,0.1l0-4.4c0,0,18.6-5.5,29.3-16.2C73.7,47.2,87.6,32.6,91.4,28.6
				z"/>
			<path id="Path_6544" class="st12" d="M85.3,11.8c0,0-6.6,3.7-11.3,6.3s-12.4,5.5-18.2,8S34.5,38.5,34.5,38.5
				c-1.4-1.9-3-3.7-4.8-5.3c6.4-5.9,17.5-12,21-13.7S82.2,8,82.2,8S85.2,11.1,85.3,11.8z"/>
			<path id="Path_6545" class="st10" d="M75.9,3.3c-7.4,1.8-32,7.7-38,9.1C27.4,14.7,17.9,20.2,10.7,28c-2,2.1-4.2,4.1-6.4,6
				c0.4-1.2,0.9-2.4,1.6-3.5c0.1-0.2,0.2-0.4,0.3-0.6l-0.3-0.6l1.4-0.8C18.1,16.6,30,13.6,30,13.6l0,0c0.7-0.4,1.5-0.7,2.3-1l0,0
				l0.1,0c0.2,0,0.3-0.1,0.5-0.1l21.8-5.4C54.9,7,55,7,55.2,6.9l0,0l0,0c0.2,0,0.4-0.1,0.6-0.1l0,0l7.7-2.2l0,0
				c0.3-0.1,0.6-0.2,1-0.2l0,0l6.9-1.5l0,0C73,2.7,74.5,2.8,75.9,3.3z"/>
			<g id="Group_75" transform="translate(0 28.037)">
				<path id="Path_6546" class="st19" d="M39.7,36.8c0,12.5-8.9,17.6-19.8,11.3S0.1,26.5,0.1,14S9-3.6,19.9,2.7S39.7,24.3,39.7,36.8
					z"/>
				<path id="Path_6547" class="st20" d="M37,36.9c0,11.7-8.3,16.5-18.5,10.6S0,27.2,0,15.5S8.3-0.9,18.5,5S37,25.2,37,36.9z"/>
				<path id="Path_6548" class="st21" d="M34.9,35.7c0,10.4-7.3,14.6-16.4,9.3S2.1,27.1,2.1,16.7S9.5,2.2,18.5,7.4
					S34.9,25.3,34.9,35.7z"/>
				<g id="Group_53" transform="translate(3.693 7.157)">
					<path id="Path_6549" class="st22" d="M29.6,27.6v0.2c0,0.3,0,0.6,0,1c0,0.6-0.1,1.2-0.2,1.9c0,0.2-0.1,0.5-0.2,0.7
						c-0.2,0.7-0.4,1.3-0.6,1.9c-0.1,0.2-0.1,0.3-0.2,0.5c-0.2,0.4-0.4,0.8-0.7,1.2c-2.6,3.6-7.4,4.3-12.8,1.1
						C6.6,31.3,0,19.9,0,10.5C0,4.6,2.6,0.9,6.6,0.2C7.2,0,7.9,0,8.6,0c0.2,0,0.3,0,0.5,0c0.6,0.1,1.1,0.2,1.7,0.3
						c0.2,0.1,0.4,0.1,0.7,0.2c0.5,0.2,1,0.3,1.5,0.6c0.2,0.1,0.5,0.2,0.8,0.3c0.4,0.2,0.7,0.4,1.1,0.6l0.1,0.1
						c0.3,0.2,0.6,0.3,0.8,0.5c0.3,0.2,0.7,0.4,1,0.7C17,3.5,17.3,3.7,17.6,4c0.3,0.2,0.5,0.4,0.8,0.6c0.3,0.3,0.6,0.5,0.9,0.8
						c0.2,0.2,0.4,0.4,0.6,0.6c0.3,0.3,0.6,0.6,0.9,0.9c0.2,0.2,0.3,0.3,0.5,0.5c0.3,0.3,0.6,0.7,0.9,1c0.1,0.2,0.3,0.3,0.4,0.5
						c0.3,0.4,0.6,0.7,0.8,1.1c0.1,0.1,0.2,0.3,0.3,0.4c0.3,0.4,0.5,0.8,0.8,1.2c0.1,0.1,0.2,0.3,0.3,0.4c0.3,0.4,0.5,0.8,0.8,1.3
						c0.1,0.2,0.2,0.3,0.3,0.5c0.2,0.4,0.5,0.9,0.7,1.3c0.1,0.2,0.2,0.4,0.3,0.5c0.2,0.4,0.4,0.9,0.6,1.4c0.1,0.2,0.2,0.4,0.3,0.7
						c0.2,0.5,0.3,0.9,0.5,1.4c0.1,0.3,0.2,0.6,0.3,0.9c0.1,0.4,0.3,0.9,0.4,1.3c0.1,0.4,0.2,0.7,0.3,1.1c0.1,0.4,0.2,0.8,0.3,1.3
						c0.1,0.4,0.1,0.9,0.2,1.3c0,0.4,0.1,0.8,0.1,1.1C29.6,26.7,29.6,27.1,29.6,27.6z"/>
				</g>
				<g id="Group_73" transform="translate(8.292 7.157)">
					<path id="Path_6550" class="st23" d="M25,27.6v0.2c0,0.3,0,0.6,0,1c0,0.6-0.1,1.2-0.2,1.9c0,0.2-0.1,0.5-0.2,0.7
						c-0.2,0.7-0.4,1.3-0.6,1.9c-0.1,0.2-0.1,0.3-0.2,0.5c-0.2,0.4-0.4,0.8-0.7,1.2c-2.4,0.5-5.2-0.1-8.2-1.9C6.6,28.3,0,16.9,0,7.5
						c-0.1-2.6,0.6-5.2,2-7.4C2.6,0,3.3,0,4,0c0.2,0,0.3,0,0.5,0c0.6,0.1,1.1,0.2,1.7,0.3c0.2,0.1,0.4,0.1,0.7,0.2
						c0.5,0.2,1,0.3,1.5,0.6c0.2,0.1,0.5,0.2,0.8,0.3C9.5,1.6,9.9,1.8,10.2,2l0.1,0.1c0.3,0.2,0.6,0.3,0.8,0.5
						c0.3,0.2,0.7,0.4,1,0.7C12.4,3.5,12.7,3.7,13,4c0.3,0.2,0.5,0.4,0.8,0.6c0.3,0.3,0.6,0.5,0.9,0.8c0.2,0.2,0.4,0.4,0.6,0.6
						c0.3,0.3,0.6,0.6,0.9,0.9c0.2,0.2,0.3,0.3,0.5,0.5c0.3,0.3,0.6,0.7,0.9,1c0.1,0.2,0.3,0.3,0.4,0.5c0.3,0.4,0.6,0.7,0.8,1.1
						c0.1,0.1,0.2,0.3,0.3,0.4c0.3,0.4,0.5,0.8,0.8,1.2c0.1,0.1,0.2,0.3,0.3,0.4c0.3,0.4,0.5,0.8,0.8,1.3c0.1,0.2,0.2,0.3,0.3,0.5
						c0.2,0.4,0.5,0.9,0.7,1.3c0.1,0.2,0.2,0.4,0.3,0.5c0.2,0.4,0.4,0.9,0.6,1.4c0.1,0.2,0.2,0.4,0.3,0.7c0.2,0.5,0.3,0.9,0.5,1.4
						c0.1,0.3,0.2,0.6,0.3,0.9c0.1,0.4,0.3,0.9,0.4,1.3c0.1,0.4,0.2,0.7,0.3,1.1c0.1,0.4,0.2,0.8,0.3,1.3c0.1,0.4,0.1,0.9,0.2,1.3
						c0,0.4,0.1,0.8,0.1,1.1C25,26.7,25,27.1,25,27.6z"/>
					<g id="Group_54" transform="translate(0.042 7.476)">
						<path id="Path_6551" class="st24" d="M8.4,5C7.7,4.7,7,4.3,6.4,3.9L0.4,0.1C0.2,0,0,0,0,0.1c0,0.2,0.1,0.3,0.3,0.4l6.1,4.5
							c1.3,1,2.8,1.8,4.4,2.5l3.9,1.5V8L8.4,5z"/>
						<path id="Path_6552" class="st24" d="M24.1,13.9l-1-0.6c-0.6-0.4-1.1-0.7-1.7-1l-0.3-0.2l-0.5-0.3L18,10.7l-1-0.5L16.7,10
							l-0.6-0.3l-0.3-0.2l-0.2-0.1l-0.2-0.1l-0.1-0.1l-0.1,0l-0.1,0l-0.1,0l-0.1,0l-0.1,0l-0.1,0l0,0l-0.1,0l0,0l-0.1,0l0,0V8l0,0
							l0,0l0,0l0,0l0.1,0l0.1,0l0.1,0l0.1,0l0.1,0l0.1,0l0.2,0.1l0.2,0.1l0.3,0.1l0.6,0.2L17,8.9l0.9,0.4l0.8,0.3
							c0.6,0.2,1.2,0.5,1.8,0.8c0.3,0.2,0.6,0.3,0.9,0.5c0.6,0.4,1.2,0.7,1.8,1.2l0.7,0.5C23.9,13,24,13.4,24.1,13.9z"/>
					</g>
					<g id="Group_55" transform="translate(0.25 4.697)">
						<path id="Path_6553" class="st25" d="M8.3,6.5c-0.7-0.5-1.4-1-2-1.5L0.5,0.2C0.2,0,0-0.1,0,0.1c0,0.2,0.1,0.3,0.3,0.5l5.9,5.6
							c1.3,1.3,2.8,2.4,4.3,3.3l4,2.4l0.2-0.9L8.3,6.5z"/>
						<path id="Path_6554" class="st25" d="M24.4,19l-1.6-1.3c-0.6-0.5-1.1-0.9-1.7-1.3c-0.1-0.1-0.2-0.2-0.3-0.2l-0.5-0.4L17.8,14
							l-0.9-0.6l-0.3-0.2l-0.6-0.4l-0.3-0.2l-0.2-0.1l-0.2-0.1l-0.1-0.1L15,12.2l-0.1-0.1l-0.1,0l-0.1,0l-0.1,0l0,0l0,0l-0.1-0.1
							l0,0l-0.1-0.1l0.1-0.5v0l0.1-0.5l0,0l0,0l0,0l0,0l0.1,0l0.1,0l0.1,0l0.1,0l0.1,0.1l0.1,0.1l0.2,0.1l0.2,0.1l0.3,0.2l0.6,0.3
							l0.3,0.2l0.9,0.6l0.8,0.5c0.6,0.3,1.2,0.7,1.8,1.2c0.3,0.2,0.6,0.4,0.9,0.7c0.6,0.5,1.1,1,1.7,1.5l1.3,1.2
							C24.3,18.2,24.4,18.6,24.4,19z"/>
					</g>
					<g id="Group_56" transform="translate(0.899 2.251)">
						<path id="Path_6555" class="st24" d="M7.9,7.9C7.2,7.3,6.6,6.7,6,6.1L0.5,0.2C0.3,0,0.1-0.1,0,0.1c0,0.1,0,0.3,0.2,0.5L5.7,7
							c1.2,1.5,2.6,2.8,4.1,4.1l3.9,3.1l0.3-0.8L7.9,7.9z"/>
						<path id="Path_6556" class="st24" d="M24.1,23.9l-2.3-2.4c-0.5-0.6-1.1-1.1-1.6-1.6c-0.1-0.1-0.2-0.2-0.3-0.3l-0.5-0.5
							L16.9,17L16,16.2l-0.3-0.3l-0.6-0.5l-0.3-0.3l-0.2-0.2l-0.1-0.1l-0.1-0.1l-0.1-0.1l-0.1-0.1l-0.1-0.1l-0.1-0.1l-0.1,0l0,0l0,0
							l0,0l0,0l-0.1-0.1l0,0l0.2-0.4l0,0v0l0.2-0.4l0,0l0,0l0,0l0,0l0.1,0l0.1,0l0.1,0.1l0.1,0.1l0.1,0.1l0.1,0.1l0.2,0.1l0.2,0.2
							l0.3,0.3l0.6,0.4l0.3,0.3l0.9,0.7l0.8,0.6c0.6,0.5,1.2,1,1.7,1.5c0.3,0.3,0.6,0.5,0.8,0.8c0.5,0.6,1.1,1.1,1.6,1.8l1.9,2.2
							C24,23.2,24.1,23.5,24.1,23.9z"/>
					</g>
					<g id="Group_57" transform="translate(1.963 0.214)">
						<path id="Path_6557" class="st25" d="M7.3,9.1C6.7,8.4,6.1,7.7,5.5,6.9l-5-6.6C0.3,0.1,0.1-0.1,0,0C0,0.1,0,0.3,0.2,0.5
							l4.9,7.2c1.1,1.7,2.4,3.2,3.8,4.7l3.7,3.8l0.4-0.6L7.3,9.1z"/>
						<path id="Path_6558" class="st25" d="M23.1,27.6c0,0.3,0,0.6,0,1l-2.9-3.8c-0.5-0.6-1-1.2-1.5-1.8c-0.1-0.1-0.2-0.2-0.3-0.3
							l-0.5-0.5l-2.3-2.6l-0.9-1l-0.3-0.3l-0.5-0.6l-0.3-0.3L13.4,17l-0.1-0.2l-0.1-0.1l-0.1-0.1L13,16.6l-0.1-0.1l-0.1-0.1l0-0.1
							l0-0.1l0,0l0,0l0,0l0,0l-0.1-0.1l0,0l0.2-0.3l0,0l0,0l0.2-0.3l0,0l0,0l0.1,0.1l0,0.1l0.1,0.1l0.1,0.1l0.1,0.1l0.1,0.1l0.1,0.1
							l0.1,0.1l0.2,0.2l0.3,0.3l0.5,0.5l0.3,0.3l0.9,0.9l0.7,0.8c0.5,0.6,1.1,1.2,1.6,1.8c0.3,0.3,0.5,0.6,0.8,0.9
							c0.5,0.6,1,1.3,1.4,2L23.1,27.6z"/>
					</g>
					<g id="Group_58" transform="translate(4.008 0.009)">
						<path id="Path_6559" class="st24" d="M11.1,15.8L11.1,15.8L10.8,16l0,0l0,0l-0.3,0.2l0,0l0,0l0,0l0,0l0,0l0-0.1l0-0.1L10.3,16
							l-0.1-0.1l-0.1-0.1l-0.1-0.1L10,15.6l-0.1-0.2l-0.2-0.2l-0.3-0.4l0,0l-0.5-0.6l0,0l-0.2-0.3l-0.9-1.1l0,0L7.1,12
							c-0.5-0.6-1-1.3-1.4-1.9C5.4,9.7,5.2,9.3,4.9,8.9l0,0C4.5,8.2,4.1,7.5,3.7,6.8L0,0c0.2,0,0.3,0,0.5,0l3.8,6.2
							c0.4,0.7,0.8,1.3,1.3,2c0.1,0.1,0.2,0.2,0.3,0.4l0.5,0.7l2.1,2.8l0.8,1.1l0.2,0.3l0.5,0.6l0.3,0.4l0.2,0.2l0.1,0.2l0.1,0.1
							l0.1,0.1l0.1,0.1l0.1,0.1l0,0.1l0,0.1l0,0.1l0,0.1l0,0.1L11.1,15.8L11.1,15.8L11.1,15.8L11.1,15.8z"/>
						<path id="Path_6560" class="st24" d="M20.8,30.6c0,0.2-0.1,0.5-0.2,0.7l-3.3-5.5c-0.4-0.7-0.9-1.3-1.3-2
							c-0.1-0.1-0.2-0.2-0.3-0.4l-0.4-0.6L13.2,20l-0.8-1.1l-0.3-0.4l-0.5-0.7l-0.3-0.4l-0.2-0.2l-0.1-0.2L11,17l-0.1-0.1l-0.1-0.1
							l-0.1-0.1l0-0.1l0-0.1l0-0.1l0-0.1l0,0l0-0.1l0,0l-0.1-0.1l0.3-0.2l0,0l0,0l0.3-0.2l0,0l0,0l0,0l0,0l0,0.1l0,0.1l0.1,0.1
							l0.1,0.1l0.1,0.1l0.1,0.1l0.1,0.1l0.1,0.2l0.2,0.2l0.3,0.4l0.5,0.6l0.3,0.4l0.8,1l0.7,0.9c0.5,0.6,1,1.3,1.5,2
							c0.2,0.3,0.5,0.7,0.7,1c0.4,0.7,0.9,1.4,1.3,2.1L20.8,30.6z"/>
					</g>
					<g id="Group_59" transform="translate(6.236 0.356)">
						<path id="Path_6561" class="st25" d="M8.9,15.5L8.9,15.5l-0.3,0.1h0l-0.3,0.1l0,0l0,0l0,0l0,0l0-0.1l0-0.1l0-0.1l0-0.1L8,15.4
							l-0.1-0.1l-0.1-0.1l-0.1-0.1l-0.1-0.2l-0.2-0.3l-0.2-0.4l-0.4-0.7l0,0l-0.2-0.3L5.8,12l0,0l-0.6-0.9C4.8,10.4,4.4,9.7,4,9
							C3.8,8.6,3.5,8.2,3.4,7.8C3,7.1,2.6,6.4,2.3,5.6L0,0c0.2,0.1,0.4,0.1,0.7,0.2l2.4,5.1C3.4,6,3.8,6.7,4.2,7.4
							c0.1,0.1,0.1,0.3,0.2,0.4l0.4,0.7l1.8,3.1l0.7,1.2l0.2,0.4l0.4,0.7l0.2,0.4l0.2,0.3l0.1,0.2l0.1,0.1l0.1,0.1L8.6,15l0,0.1
							l0,0.1l0,0.1l0,0.1l0,0.1l0,0.1l0,0L8.9,15.5L8.9,15.5L8.9,15.5z"/>
						<path id="Path_6562" class="st25" d="M17.8,32.9c-0.1,0.2-0.1,0.3-0.2,0.5l-3.5-7.3c-0.3-0.7-0.7-1.4-1.1-2.1
							c-0.1-0.1-0.1-0.3-0.2-0.4l-0.4-0.7l-1.8-3.1l-0.7-1.2l-0.2-0.4l-0.4-0.7L9,17.2l-0.2-0.3l-0.1-0.2l-0.1-0.1l-0.1-0.1
							l-0.1-0.1l0-0.1l0-0.1l0-0.1l0-0.1l0-0.1l0-0.1l0-0.1l-0.1-0.1l0,0l0.3-0.1l0,0l0.3-0.1l0,0l0,0l0,0.1l0,0.1l0,0.1l0,0.1
							l0,0.1L9.2,16l0.1,0.1l0.1,0.1l0.1,0.2l0.2,0.3l0.2,0.4l0.4,0.7l0.3,0.4l0.7,1.1l0.6,0.9c0.4,0.7,0.9,1.4,1.3,2.2
							c0.2,0.4,0.4,0.7,0.6,1.1c0.4,0.7,0.7,1.5,1,2.2L17.8,32.9z"/>
					</g>
					<g id="Group_60" transform="translate(8.363 1.096)">
						<path id="Path_6563" class="st24" d="M6.8,14.9l-0.4,0h0L6,15l0,0l0,0l0,0l-0.1-0.1l0,0l0-0.1l0-0.1l0-0.1l-0.1-0.1l-0.1-0.1
							l-0.1-0.1L5.6,14l-0.1-0.3l-0.2-0.4l-0.4-0.7l0,0l-0.2-0.4L4,11l-0.5-1c-0.4-0.7-0.7-1.4-1-2.2C2.3,7.4,2.2,7,2,6.6
							C1.8,5.9,1.5,5.1,1.3,4.4L0,0c0.2,0.1,0.5,0.2,0.8,0.3l1.4,3.8C2.4,4.9,2.7,5.6,3,6.4C3,6.5,3.1,6.6,3.2,6.8l0.3,0.7l1.4,3.2
							L5.5,12l0.2,0.4L6,13.1l0.2,0.4l0.1,0.3L6.4,14l0.1,0.2l0.1,0.1l0,0.1l0,0.1l0,0.1l0,0.1l0,0.1l0,0.1l0,0.1L6.8,14.9L6.8,14.9
							L6.8,14.9z"/>
						<path id="Path_6564" class="st24" d="M9.7,23.1c0.4,0.8,0.7,1.7,1,2.6l2.7,7.6c0.1,0.3,0.3,0.5,0.4,0.5c0.1,0,0.1-0.2,0-0.4
							l-2.3-7.9c-0.6-1.9-1.3-3.8-2.2-5.6l-2.5-5L6,15L9.7,23.1z"/>
					</g>
					<g id="Group_61" transform="translate(10.342 2.107)">
						<path id="Path_6565" class="st25" d="M4.9,14l-0.4-0.1h0l0,0l0,0L4,13.9l0,0l0,0l0-0.1l0,0l0-0.1l0-0.1l0-0.1l0-0.1l0-0.1
							l0-0.1l0-0.1l-0.1-0.2l-0.1-0.2l-0.1-0.3l-0.2-0.4l-0.3-0.7L3,11.1L2.5,9.8l-0.4-1C1.8,8,1.6,7.3,1.3,6.5
							C1.2,6.1,1.1,5.7,1,5.4C0.8,4.6,0.7,3.9,0.5,3.2L0,0c0.3,0.2,0.6,0.3,0.8,0.5l0.6,2.7c0.2,0.7,0.4,1.4,0.6,2.2
							c0,0.1,0.1,0.3,0.1,0.4l0.2,0.7l1.1,3.2L3.9,11L4,11.4l0.2,0.7l0.1,0.4l0.1,0.3l0.1,0.2l0.1,0.2l0,0.1l0,0.1l0,0.1l0,0.1
							l0,0.1l0,0.1l0,0.1l0,0.1L4.9,14L4.9,14L4.9,14z"/>
						<path id="Path_6566" class="st25" d="M6.7,22.1c0.3,0.9,0.5,1.7,0.7,2.6l1.8,7.5c0.1,0.3,0.2,0.6,0.4,0.6
							c0.1,0,0.1-0.1,0.1-0.4l-1.3-7.7c-0.3-1.9-0.9-3.8-1.5-5.6L4.9,14L4,13.9L6.7,22.1z"/>
					</g>
					<g id="Group_62" transform="translate(12.155 3.296)">
						<path id="Path_6567" class="st24" d="M3.1,12.9l-0.4-0.2h0l0,0l0,0l-0.4-0.2v0l0,0l0,0l0,0l0,0l0-0.1l0-0.1l0-0.1l0-0.1l0-0.1
							l0-0.1l0-0.1l0,0l0-0.1l-0.1-0.2l-0.1-0.3l-0.1-0.4l-0.2-0.7L1.5,9.8L1.1,8.5l-0.3-1C0.7,6.8,0.5,6,0.4,5.3
							C0.3,4.9,0.3,4.6,0.2,4.2C0.1,3.5,0.1,2.8,0.1,2.1L0,0c0.3,0.2,0.6,0.4,0.9,0.7l0.2,1.7c0.1,0.7,0.2,1.4,0.3,2.1
							c0,0.1,0.1,0.3,0.1,0.4l0.1,0.7l0,0l0.7,3.2L2.5,10l0.1,0.4l0.1,0.7l0.1,0.4l0.1,0.3l0,0.2l0,0.1l0,0.1l0,0.1l0,0.1l0,0.1
							l0,0.1l0,0.1l0,0.1l0,0.1l0,0L3.1,12.9L3.1,12.9z"/>
						<path id="Path_6568" class="st24" d="M3.8,20.6c0.2,0.8,0.3,1.7,0.4,2.5L5,30.3c0,0.3,0.2,0.6,0.3,0.6c0.1,0,0.2-0.1,0.2-0.3
							l-0.2-7.2c-0.1-1.8-0.3-3.6-0.8-5.4l-1.3-5.1l-0.9-0.3L3.8,20.6z"/>
					</g>
					<g id="Group_63" transform="translate(13.51 4.608)">
						<path id="Path_6569" class="st25" d="M1.7,11.7L1.7,11.7l-0.4-0.3l0,0l0,0l0,0l-0.4-0.3l0,0l0,0l0-0.1l0-0.1l0-0.1l0-0.1
							l0-0.1l0-0.1l0-0.1l0-0.1l0-0.2l0-0.3L0.6,9.6L0.5,8.9L0.5,8.5L0.3,7.3l-0.1-1C0.1,5.6,0,4.9,0,4.2c0-0.4,0-0.7,0-1.1
							c0-0.6,0.1-1.3,0.1-1.9L0.3,0c0.3,0.3,0.6,0.5,0.9,0.8l0,0.9c0,0.6,0,1.3,0,1.9l0,0c0,0.1,0,0.3,0,0.4l0.1,0.7l0.2,3l0.1,1.2
							l0,0.4l0,0.7l0,0.4l0,0.3l0,0.2l0,0.1l0,0.1l0,0.1l0,0.1l0,0.1v0.1l0,0.1l0,0.1v0.1L1.7,11.7L1.7,11.7L1.7,11.7z"/>
						<path id="Path_6570" class="st25" d="M1.4,18.8c0.1,0.8,0.1,1.6,0,2.3l-0.3,6.7c0,0.2,0.1,0.5,0.2,0.6c0.1,0.1,0.2,0,0.2-0.2
							l0.9-6.6c0.2-1.7,0.2-3.4-0.1-5.1l-0.6-4.9l-0.9-0.5L1.4,18.8z"/>
					</g>
					<g id="Group_64" transform="translate(12.138 6.002)">
						<path id="Path_6571" class="st24" d="M4.1,0.9L4,1.3C3.9,1.9,3.8,2.5,3.7,3.1c0,0.1,0,0.2,0,0.3L3.6,4L3.4,6.8L3.3,7.9l0,0.3
							L3.2,8.8l0,0.4l0,0.2l0,0.2l0,0.1l0,0.1l0,0.1l0,0.1l0,0.1l0,0.1v0.1l0,0v0.1l0,0.1l0,0l0,0.1L2.7,10l0,0l0,0l0,0l0,0L2.2,9.7
							v0v0V9.4V9.3V9.1V9V8.8V8.6V8.2l0-0.7V7.2l0-1.1l0-0.9c0-0.6,0-1.3,0.1-1.9c0-0.3,0.1-0.6,0.1-0.9l0,0C2.6,1.7,2.8,1.1,3,0.6
							L3.2,0C3.5,0.3,3.8,0.6,4.1,0.9z"/>
						<path id="Path_6572" class="st24" d="M1.7,16.7c-0.1,0.7-0.2,1.4-0.3,2.1L0,24.7c-0.1,0.2,0,0.4,0.2,0.6
							c0.1,0.1,0.2,0,0.3-0.1l1.9-5.7c0.5-1.5,0.7-3,0.7-4.6l0-4.5L2.2,9.7L1.7,16.7z"/>
					</g>
					<g id="Group_65" transform="translate(9.698 7.456)">
						<path id="Path_6573" class="st25" d="M7.9,1L7.9,1c-0.2,0.5-0.4,1-0.6,1.5c0,0.1-0.1,0.2-0.1,0.3L7,3.4L6.4,5.8L6.1,6.8L6,7.1
							L5.9,7.6L5.8,7.9L5.7,8.2l0,0.1l0,0.1l0,0.1l0,0.1l0,0.1l0,0.1l0,0.1l0,0l0,0l0,0l0,0l0,0.1L5.1,8.6l0,0l0,0l0,0l0,0L4.7,8.2
							l0,0l0,0l0,0l0,0l0,0l0-0.1l0-0.1l0-0.1l0-0.1l0-0.1l0-0.1l0-0.2l0-0.2l0.1-0.3L5,6.2l0.1-0.3l0.2-1l0.1-0.8
							C5.5,3.5,5.7,3,5.8,2.4C5.9,2.1,6,1.9,6.1,1.6c0.2-0.5,0.4-1,0.7-1.4L7,0C7.3,0.3,7.6,0.7,7.9,1z"/>
						<path id="Path_6574" class="st25" d="M3,14.3c-0.2,0.6-0.4,1.2-0.7,1.8l-2.3,5C0,21.3,0,21.5,0.1,21.7c0.1,0.1,0.2,0.1,0.3,0
							c0,0,0,0,0-0.1L3.3,17c0.7-1.2,1.2-2.5,1.5-3.9L5.5,9L4.7,8.2L3,14.3z"/>
					</g>
					<g id="Group_66" transform="translate(7.4 8.965)">
						<path id="Path_6575" class="st24" d="M11.4,1.1c-0.3,0.3-0.5,0.7-0.7,1.1c-0.1,0.1-0.1,0.2-0.1,0.2l-0.2,0.4l-1.1,2L8.8,5.7
							L8.6,6L8.4,6.4L8.3,6.7L8.2,6.9L8.1,7L8,7.1l0,0.1l0,0.1l0,0.1l0,0l0,0l0,0l0,0.1l0,0l0,0.1L7.4,7.1l0,0l0,0l0,0L7,6.6l0,0
							l0,0l0,0l0,0l0,0l0-0.1l0-0.1l0-0.1l0-0.1l0-0.1l0.1-0.1l0.1-0.2l0.1-0.3l0.2-0.5l0.1-0.3l0.3-0.9l0.3-0.7
							c0.2-0.5,0.4-1,0.7-1.4c0.1-0.2,0.3-0.4,0.4-0.6c0.3-0.4,0.6-0.7,1-1.1C10.8,0.4,11.1,0.7,11.4,1.1z"/>
						<path id="Path_6576" class="st24" d="M4.3,11.7c-0.3,0.5-0.6,1-1,1.5L0.1,17c-0.1,0.2-0.1,0.4,0,0.5c0.1,0.1,0.2,0.1,0.3,0.1
							c0,0,0,0,0,0l3.8-3.4c0.9-0.9,1.7-2,2.1-3.2l1.4-3.5L7,6.6L4.3,11.7z"/>
					</g>
					<g id="Group_67" transform="translate(5.314 10.54)">
						<path id="Path_6577" class="st25" d="M14.6,1.2C14.3,1.4,14,1.7,13.7,2c-0.1,0.1-0.1,0.1-0.2,0.2l-0.3,0.3L11.7,4l-0.6,0.6
							L11,4.8l-0.3,0.3l-0.2,0.2l-0.1,0.1l-0.1,0.1l-0.1,0.1l-0.1,0.1l0,0l0,0l0,0l0,0l0,0l0,0l0,0l0,0l0,0L9.5,5.5l0,0l0,0L9.1,5
							l0,0l0,0l0,0l0,0l0,0l0,0l0,0l0,0l0-0.1l0-0.1l0.1-0.1l0.1-0.1l0.1-0.1l0.2-0.2l0.3-0.4l0.2-0.2l0.5-0.7l0.4-0.5
							c0.3-0.4,0.6-0.8,1-1.1c0.2-0.2,0.4-0.3,0.6-0.5c0.3-0.2,0.7-0.5,1.1-0.6C14.1,0.4,14.3,0.8,14.6,1.2z"/>
						<path id="Path_6578" class="st25" d="M5.5,8.9C5.1,9.3,4.7,9.6,4.2,9.9l-4,2.7C0,12.7,0,12.9,0.1,13.1
							c0.1,0.1,0.2,0.2,0.4,0.1L5,11.1c1.1-0.5,2.1-1.3,2.8-2.3l2-2.8L9.1,5L5.5,8.9z"/>
					</g>
					<g id="Group_68" transform="translate(3.508 12.186)">
						<path id="Path_6579" class="st24" d="M17.4,1.3c-0.4,0.1-0.7,0.3-1.1,0.5l-0.2,0.1l-0.4,0.2l-1.8,1l-0.7,0.4L13,3.6l-0.4,0.2
							L12.4,4l-0.2,0.1l-0.1,0.1l-0.1,0l-0.1,0l-0.1,0l0,0l0,0l0,0l0,0l0,0l0,0l0,0l0,0l-0.1,0l-0.3-0.6l0,0l0,0L11,3.3l0,0l0,0l0,0
							l0,0l0,0l0,0l0,0l0.1,0l0.1,0L11.4,3l0.1-0.1l0.1-0.1l0.2-0.2l0.4-0.3l0.2-0.2l0.6-0.5l0.5-0.4C14,1,14.4,0.8,14.8,0.6
							c0.2-0.1,0.4-0.2,0.7-0.3c0.4-0.1,0.8-0.2,1.2-0.3C16.9,0.4,17.2,0.8,17.4,1.3z"/>
						<path id="Path_6580" class="st24" d="M6.5,5.9C6,6.1,5.5,6.4,5,6.5L0.2,7.9C0.1,7.9,0,8.1,0,8.2c0,0,0,0,0,0.1
							c0.1,0.1,0.2,0.2,0.4,0.2l5.3-0.8C6.9,7.6,8,7.1,9,6.4l2.6-2L11,3.3L6.5,5.9z"/>
					</g>
					<g id="Group_69" transform="translate(2.038 13.891)">
						<path id="Path_6581" class="st25" d="M19.8,1.4c-0.4,0-0.9,0.1-1.3,0.1c-0.1,0-0.2,0-0.3,0.1l-0.4,0.1l-2.1,0.5l-0.8,0.2
							l-0.3,0.1l-0.5,0.1l-0.3,0.1l-0.2,0l-0.1,0l-0.1,0l-0.1,0l-0.1,0l-0.1,0l-0.1,0l0,0l0,0l0,0l0,0l0,0l-0.1,0l-0.2-0.6l0,0l0,0
							l-0.2-0.6l0,0l0,0l0,0l0,0l0,0l0,0l0.1,0l0.1,0l0.1,0l0.1,0l0.1,0l0.2-0.1l0.3-0.1L14,1l0.3-0.1L15,0.7l0.6-0.2
							c0.5-0.2,0.9-0.3,1.4-0.4c0.3,0,0.5-0.1,0.8-0.1c0.4,0,0.9,0,1.3,0C19.4,0.5,19.6,0.9,19.8,1.4z"/>
						<path id="Path_6582" class="st25" d="M7.3,2.7C6.7,2.9,6.1,2.9,5.6,2.9L0.3,3C0.1,3,0,3.2,0,3.3c0.1,0.1,0.2,0.3,0.4,0.3
							l5.7,0.6c1.3,0.2,2.6,0,3.8-0.4L13,2.7l-0.4-1.2L7.3,2.7z"/>
					</g>
					<g id="Group_70" transform="translate(0.949 13.684)">
						<path id="Path_6583" class="st24" d="M21.8,3.5l-0.1,0c-0.5-0.1-1.1-0.2-1.6-0.2c-0.1,0-0.2,0-0.3,0l-0.5,0L17,3.1l-0.9,0
							l-0.3,0l-0.5,0L15,3l-0.2,0l-0.1,0l-0.1,0l-0.1,0h-0.1h-0.1h-0.1h0h0h0l0,0h0H14l-0.2-0.6l0,0l0,0l0,0l-0.2-0.6h0l0,0h0h0h0
							h0.1l0.1,0h0.1l0.1,0l0.1,0l0.1,0l0.2,0l0.3,0l0.5,0l0.3,0l0.8-0.1l0.7,0c0.5,0,1.1,0,1.6,0c0.3,0,0.5,0.1,0.8,0.1
							c0.5,0.1,1.1,0.2,1.6,0.4C21.4,2.6,21.6,3,21.8,3.5z"/>
						<path id="Path_6584" class="st24" d="M7.9,1.5C7.3,1.5,6.6,1.4,6,1.3L0.3,0C0.1,0,0,0.1,0,0.2c0.1,0.2,0.2,0.3,0.4,0.3l6.1,2
							C7.7,3,9.1,3.2,10.5,3.2L14,2.9l-0.3-1.2L7.9,1.5z"/>
					</g>
					<g id="Group_71" transform="translate(0.276 10.514)">
						<path id="Path_6585" class="st25" d="M23.2,8.7l-0.5-0.2c-0.5-0.2-1.1-0.4-1.7-0.6c-0.1,0-0.2-0.1-0.3-0.1l-0.5-0.1l-2.5-0.7
							l-0.9-0.2l-0.3-0.1L16,6.5l-0.3-0.1l-0.2-0.1l-0.1,0l-0.1,0l-0.1,0l-0.1,0l-0.1,0l-0.1,0l-0.1,0l0,0l0,0l0,0l0,0l-0.1,0l0,0
							l-0.1-0.6l0,0l0,0l0,0L14.4,5l0,0l0,0l0,0l0,0l0,0l0,0l0.1,0l0.1,0l0.1,0l0.1,0l0.1,0l0.1,0l0.2,0l0.3,0.1l0.5,0.1l0.3,0.1
							l0.9,0.2l0.7,0.1c0.6,0.1,1.1,0.2,1.7,0.4c0.3,0.1,0.6,0.2,0.9,0.3c0.6,0.2,1.2,0.5,1.7,0.8l0.2,0.1
							C22.9,7.7,23.1,8.2,23.2,8.7z"/>
						<path id="Path_6586" class="st25" d="M8.3,3.3c-0.7-0.2-1.3-0.4-2-0.7L0.4,0C0.2-0.1,0,0,0,0.2c0.1,0.2,0.2,0.3,0.3,0.4
							l6.2,3.3c1.3,0.7,2.8,1.3,4.3,1.6l3.8,0.7L14.4,5L8.3,3.3z"/>
					</g>
					<g id="Group_72" transform="translate(9.011 8.593)">
						<path id="Path_6587" class="st26" d="M11.6,10.8c0,3.7-2.6,5.2-5.8,3.3C2.4,11.9,0.2,8.2,0,4.1c0-3.7,2.6-5.2,5.8-3.3
							C9.2,3,11.4,6.7,11.6,10.8z"/>
						<path id="Path_6588" class="st27" d="M8.1,8.8c0,1.5-1,2.1-2.3,1.3c-1.4-0.9-2.2-2.4-2.3-4c0-1.5,1-2.1,2.3-1.3
							C7.2,5.7,8,7.2,8.1,8.8z"/>
					</g>
				</g>
				<g id="Group_74" transform="translate(16.317 15.774)">
					<path id="Path_6589" class="st17" d="M10.3,14.8c1.4-0.4,2.2-1.8,2.2-4c-0.2-4.1-2.4-7.8-5.8-10c-2.1-1.2-3.9-1-4.9,0.3l0,0
						l0,0.1C1.7,1.3,1.6,1.5,1.5,1.7C0.3,3.8-0.2,6.2,0.1,8.6c0.8,1,1.4,2.2,1.9,3.4c2,1.5,4.3,2.5,6.8,2.9c0.4,0.1,0.8,0.1,1.1,0
						H10c0,0,0,0,0.1,0l0,0C10.2,14.8,10.3,14.8,10.3,14.8z"/>
					<path id="Path_6590" class="st17" d="M4.7,10.9c0,1.5-1,2.1-2.3,1.3c-1.4-0.9-2.2-2.4-2.3-4c0-1.5,1-2.1,2.3-1.3
						C3.8,7.8,4.7,9.3,4.7,10.9z"/>
					<path id="Path_6591" class="st12" d="M6.6,6.5C6,8.1,4.7,9,3.6,8.6s-1.6-2-1-3.5s1.9-2.5,3-2.1S7.1,4.9,6.6,6.5z"/>
				</g>
			</g>
			<path id="Path_6592" class="st17" d="M79.5,5c0,0-26.5,6.2-34.7,10S22.2,30,22.2,30l0,0c-0.1-0.1-3.1-1.7-3.6-1.9
				s4.2-12.7,8.8-14.6S65.1-0.3,68.2,0c2.6,0.2,8.8,3.6,10.7,4.7l0,0C79.3,4.9,79.5,5,79.5,5z"/>
			<path id="Path_6593" class="st21" d="M79.5,5c0,0-26.5,6.2-34.7,10S22.2,30,22.2,30l0,0c-0.5-0.3,4.2-12.7,8.8-14.6
				S68.7,1.6,71.8,1.9c1.6,0.2,4.6,1.5,7.1,2.8l0,0C79.3,4.9,79.5,5,79.5,5z"/>
		</g>
		<g id="Group_100" transform="translate(389.283 351.328)">
			<path id="Path_6594" class="st14" d="M91.6,26.7c0-8.2-5.8-18.1-12.9-22.2c-2.1-1.4-4.7-2-7.2-1.6l0,0l-6.9,1.5l1.9,3.3
				c-0.4,1.3-0.6,2.7-0.6,4.1c0,8.1,5.8,18.1,12.9,22.2c1.1,0.7,2.4,1.2,3.6,1.5l2.1,3.6l4.9-5.4l0,0C90.7,32.2,91.6,29.8,91.6,26.7
				z"/>
			<path id="Path_6595" class="st15" d="M86.9,31.3c0-9.2-6.5-20.4-14.5-25c-3.3-1.9-6.4-2.4-8.8-1.7l0,0l-7.7,2.2l2.4,4.1
				c-0.3,1.2-0.4,2.4-0.4,3.6c0,9.2,6.5,20.4,14.5,25c1.1,0.7,2.3,1.2,3.6,1.6l2.4,4l5.7-5.5C85.8,37.9,86.9,35.1,86.9,31.3z"/>
			<path id="Path_6596" class="st16" d="M77.9,45.7c1.7-2,2.8-4.9,2.8-8.8c0-10.3-7.3-22.8-16.2-27.9c-3.4-2-6.6-2.6-9.2-2l0,0l0,0
				C55,7,54.9,7,54.7,7.1l-22.4,5.6l29.5,49.7l15.6-16.2C77.6,46,77.7,45.8,77.9,45.7L77.9,45.7L77.9,45.7z"/>
			<path id="Path_6597" class="st16" d="M65.5,50.9c0-13.2-9.3-29.2-20.8-35.8c-5.8-3.3-11-3.6-14.8-1.4l0,0c0,0-12,3-23,15.2
				c-9.5,10.6,14.8,52.8,27.9,48.1c16.8-6.1,24.7-12.7,24.8-12.8l0,0l0,0C63.3,61.8,65.5,57.3,65.5,50.9z"/>
			<path id="Path_6598" class="st17" d="M42.9,63c0-12.5-8.9-27.8-19.8-34.1c-5.5-3.2-10.5-3.5-14.1-1.4l0,0l-3.2,1.9L6.2,30
				c-1.8,2.4-2.9,5.8-2.9,10.1c0,12.5,8.9,27.8,19.8,34.1c3.9,2.2,7.5,3,10.5,2.6l0.4,0.6l3-1.7c0.1-0.1,0.3-0.1,0.4-0.2l0,0l0,0
				C40.8,73.4,42.9,69.1,42.9,63z"/>
			<path id="Path_6599" class="st17" d="M91.5,26.7c0,0.6,0,1.2-0.1,1.8c-0.1,0.8-0.3,1.5-0.5,2.3c-0.3,1.1-0.9,2.1-1.7,2.9
				l-4.9,5.4l0,0c-0.1,0.1-0.3,0.3-0.4,0.4l-5.7,5.5l0,0c-0.1,0.2-0.3,0.3-0.4,0.5l0,0c-0.2,0.2-0.3,0.3-0.5,0.5L61.8,62.3l0,0
				c-0.6,0.7-1.3,1.2-2.1,1.7l0,0c-0.1,0.1-7.9,6.7-24.5,12.7l-0.1,0.1L34,77.5l-0.2-0.3c-1.2,0.2-2.5,0.1-3.6-0.3
				c-0.2,0-0.3-0.1-0.5-0.1c-0.5-0.1-0.9-0.2-1.4-0.3l5.2-21.2c11-2.6,21.4-7.1,30.8-13.4c11.1-7.5,21.3-17.5,26-22.4
				c0.3,0.9,0.6,1.9,0.8,2.9C91.4,23.7,91.5,25.2,91.5,26.7z"/>
			<path id="Path_6600" class="st10" d="M91.5,26.7c0,0.6,0,1.2-0.1,1.8c-0.1,0.8-0.3,1.5-0.5,2.3c-0.3,1.1-0.9,2.1-1.7,2.9
				l-4.9,5.4l0,0c-0.1,0.1-0.3,0.3-0.4,0.4l-5.7,5.5l0,0c-0.1,0.2-0.3,0.3-0.4,0.5l0,0c-0.2,0.2-0.3,0.3-0.5,0.5L61.8,62.3l0,0
				c-0.6,0.7-1.3,1.2-2.1,1.7l0,0c-0.1,0.1-7.9,6.7-24.5,12.7l-0.1,0.1L34,77.5l-0.2-0.3c-1.2,0.2-2.5,0.1-3.6-0.3
				c-0.2,0-0.3-0.1-0.5-0.1c1-4.7,2.2-9.3,3.6-13.8c0,0,15-3,32-15.8C73.4,41,85.8,28,91,22.3C91.4,23.7,91.5,25.2,91.5,26.7z"/>
			<path id="Path_6601" class="st18" d="M91.4,28.6c-0.1,0.8-0.3,1.5-0.5,2.3c-0.3,1.1-0.9,2.1-1.7,2.9l-4.9,5.4l0,0
				c-0.1,0.1-0.3,0.3-0.4,0.4l-5.7,5.5l0,0c-0.1,0.2-0.3,0.3-0.4,0.5l0,0c-0.2,0.2-0.3,0.3-0.5,0.5L61.8,62.3l0,0
				c-0.6,0.7-1.3,1.2-2.1,1.7l0,0c-0.1,0.1-7.9,6.7-24.5,12.7l-0.1,0.1l0-4.4c0,0,18.6-5.5,29.3-16.2C73.7,47.2,87.6,32.6,91.4,28.6
				z"/>
			<path id="Path_6602" class="st12" d="M85.3,11.8c0,0-6.6,3.7-11.3,6.3s-12.4,5.5-18.2,8S34.5,38.5,34.5,38.5
				c-1.4-1.9-3-3.7-4.8-5.3c6.4-5.9,17.5-12,21-13.7S82.2,8,82.2,8S85.2,11.1,85.3,11.8z"/>
			<path id="Path_6603" class="st10" d="M75.9,3.3c-7.4,1.8-32,7.7-38,9.1C27.4,14.7,17.9,20.2,10.7,28c-2,2.1-4.2,4.1-6.4,6
				c0.4-1.2,0.9-2.4,1.6-3.5c0.1-0.2,0.2-0.4,0.3-0.6l-0.3-0.6l1.4-0.8C18.1,16.6,30,13.6,30,13.6l0,0c0.7-0.4,1.5-0.7,2.3-1l0,0
				l0.1,0c0.2,0,0.3-0.1,0.5-0.1l21.8-5.4C54.9,7,55,7,55.2,6.9l0,0l0,0c0.2,0,0.4-0.1,0.6-0.1l0,0l7.7-2.2l0,0
				c0.3-0.1,0.6-0.2,1-0.2l0,0l6.9-1.5l0,0C73,2.7,74.5,2.8,75.9,3.3z"/>
			<g id="Group_99" transform="translate(0 28.036)">
				<path id="Path_6604" class="st19" d="M39.7,36.8c0,12.5-8.9,17.6-19.8,11.3S0.1,26.5,0.1,14S9-3.6,19.9,2.7S39.7,24.3,39.7,36.8
					z"/>
				<path id="Path_6605" class="st20" d="M37,36.9c0,11.7-8.3,16.5-18.5,10.6S0,27.2,0,15.5S8.3-0.9,18.5,5S37,25.2,37,36.9z"/>
				<path id="Path_6606" class="st21" d="M34.9,35.7c0,10.4-7.3,14.6-16.4,9.3S2.1,27.1,2.1,16.7S9.5,2.2,18.5,7.4
					S34.9,25.3,34.9,35.7z"/>
				<g id="Group_77" transform="translate(3.69 7.158)">
					<path id="Path_6607" class="st22" d="M29.6,27.6v0.2c0,0.3,0,0.6,0,1c0,0.6-0.1,1.2-0.2,1.9c0,0.2-0.1,0.5-0.2,0.7
						c-0.2,0.7-0.4,1.3-0.6,1.9c-0.1,0.2-0.1,0.3-0.2,0.5c-0.2,0.4-0.4,0.8-0.7,1.2c-2.6,3.6-7.4,4.3-12.8,1.1
						C6.6,31.3,0,19.9,0,10.5C0,4.6,2.6,0.9,6.6,0.2C7.2,0,7.9,0,8.6,0c0.2,0,0.3,0,0.5,0c0.6,0.1,1.1,0.2,1.7,0.3
						c0.2,0.1,0.4,0.1,0.7,0.2c0.5,0.2,1,0.3,1.5,0.5c0.3,0.1,0.5,0.2,0.8,0.4c0.4,0.2,0.7,0.4,1.1,0.6c0,0,0.1,0,0.1,0.1
						c0.3,0.2,0.6,0.3,0.8,0.5c0.3,0.2,0.7,0.4,1,0.7C17,3.5,17.3,3.7,17.6,4c0.3,0.2,0.5,0.4,0.8,0.6c0.3,0.3,0.6,0.5,0.9,0.8
						c0.2,0.2,0.4,0.4,0.6,0.6c0.3,0.3,0.6,0.6,0.9,0.9c0.2,0.2,0.3,0.3,0.5,0.5c0.3,0.3,0.6,0.7,0.9,1c0.1,0.2,0.3,0.3,0.4,0.5
						c0.3,0.4,0.6,0.7,0.8,1.1c0.1,0.1,0.2,0.3,0.3,0.4c0.3,0.4,0.5,0.8,0.8,1.2c0.1,0.1,0.2,0.3,0.3,0.4c0.3,0.4,0.5,0.8,0.8,1.3
						c0.1,0.2,0.2,0.3,0.3,0.5c0.2,0.4,0.5,0.9,0.7,1.3c0.1,0.2,0.2,0.4,0.3,0.5c0.2,0.4,0.4,0.9,0.6,1.4c0.1,0.2,0.2,0.4,0.3,0.7
						c0.2,0.5,0.3,0.9,0.5,1.4c0.1,0.3,0.2,0.6,0.3,0.9c0.1,0.4,0.3,0.9,0.4,1.3c0.1,0.4,0.2,0.7,0.3,1.1c0.1,0.4,0.2,0.8,0.3,1.3
						c0.1,0.4,0.1,0.9,0.2,1.3c0,0.4,0.1,0.8,0.1,1.1C29.6,26.7,29.6,27.1,29.6,27.6z"/>
				</g>
				<g id="Group_97" transform="translate(8.292 7.158)">
					<path id="Path_6608" class="st23" d="M25,27.6v0.2c0,0.3,0,0.6,0,1c0,0.6-0.1,1.2-0.2,1.9c0,0.2-0.1,0.5-0.2,0.7
						c-0.2,0.7-0.4,1.3-0.6,1.9c-0.1,0.2-0.1,0.3-0.2,0.5c-0.2,0.4-0.4,0.8-0.7,1.2c-2.4,0.5-5.2-0.1-8.2-1.9C6.6,28.3,0,16.9,0,7.5
						c-0.1-2.6,0.6-5.2,2-7.4C2.6,0,3.3,0,4,0c0.2,0,0.3,0,0.5,0c0.6,0.1,1.1,0.2,1.7,0.3c0.2,0.1,0.4,0.1,0.7,0.2
						c0.5,0.2,1,0.3,1.5,0.5c0.3,0.1,0.5,0.2,0.8,0.4C9.5,1.6,9.9,1.8,10.2,2c0,0,0.1,0,0.1,0.1c0.3,0.2,0.6,0.3,0.8,0.5
						c0.3,0.2,0.7,0.4,1,0.7C12.4,3.5,12.7,3.7,13,4c0.3,0.2,0.5,0.4,0.8,0.6c0.3,0.3,0.6,0.5,0.9,0.8c0.2,0.2,0.4,0.4,0.6,0.6
						c0.3,0.3,0.6,0.6,0.9,0.9c0.2,0.2,0.3,0.3,0.5,0.5c0.3,0.3,0.6,0.7,0.9,1c0.1,0.2,0.3,0.3,0.4,0.5c0.3,0.4,0.6,0.7,0.8,1.1
						c0.1,0.1,0.2,0.3,0.3,0.4c0.3,0.4,0.5,0.8,0.8,1.2c0.1,0.1,0.2,0.3,0.3,0.4c0.3,0.4,0.5,0.8,0.8,1.3c0.1,0.2,0.2,0.3,0.3,0.5
						c0.2,0.4,0.5,0.9,0.7,1.3c0.1,0.2,0.2,0.4,0.3,0.5c0.2,0.4,0.4,0.9,0.6,1.4c0.1,0.2,0.2,0.4,0.3,0.7c0.2,0.5,0.3,0.9,0.5,1.4
						c0.1,0.3,0.2,0.6,0.3,0.9c0.1,0.4,0.3,0.9,0.4,1.3c0.1,0.4,0.2,0.7,0.3,1.1c0.1,0.4,0.2,0.8,0.3,1.3c0.1,0.4,0.1,0.9,0.2,1.3
						c0,0.4,0.1,0.8,0.1,1.1C25,26.7,25,27.1,25,27.6z"/>
					<g id="Group_78" transform="translate(0.039 7.476)">
						<path id="Path_6609" class="st24" d="M8.4,5C7.7,4.7,7,4.3,6.4,3.9L0.4,0.1C0.2,0,0,0,0,0.1c0,0.2,0.1,0.3,0.3,0.4l6.1,4.5
							c1.3,1,2.8,1.8,4.4,2.5l3.9,1.5V8L8.4,5z"/>
						<path id="Path_6610" class="st24" d="M24.1,13.9l-1-0.6c-0.6-0.4-1.1-0.7-1.7-1c-0.1-0.1-0.2-0.1-0.3-0.2l-0.5-0.3L18,10.7
							l-1-0.5L16.8,10l-0.6-0.3l-0.3-0.2l-0.2-0.1l-0.2-0.1l-0.1-0.1l-0.1,0l-0.1,0l-0.1,0l-0.1,0l-0.1,0l0,0l0,0l-0.1,0l0,0l-0.1,0
							l0,0V8l0,0l0,0l0,0l0,0l0,0l0.1,0l0.1,0l0.1,0l0.1,0l0.1,0l0.2,0.1l0.2,0.1l0.3,0.1l0.6,0.2L17,8.9l0.9,0.4l0.8,0.3
							c0.6,0.2,1.2,0.5,1.8,0.8c0.3,0.2,0.6,0.3,0.9,0.5c0.6,0.4,1.2,0.8,1.8,1.2l0.7,0.5C23.9,13,24,13.4,24.1,13.9z"/>
					</g>
					<g id="Group_79" transform="translate(0.25 4.696)">
						<path id="Path_6611" class="st25" d="M8.3,6.5c-0.7-0.5-1.4-1-2-1.5L0.5,0.2C0.2,0,0-0.1,0,0.1c0,0.2,0.1,0.4,0.3,0.5l5.9,5.6
							c1.3,1.3,2.8,2.4,4.3,3.3l4,2.4l0.2-0.9L8.3,6.5z"/>
						<path id="Path_6612" class="st25" d="M24.4,19l-1.6-1.3c-0.6-0.5-1.1-0.9-1.7-1.3c-0.1-0.1-0.2-0.2-0.3-0.2l-0.5-0.4L17.8,14
							l-0.9-0.6l-0.3-0.2l-0.6-0.4l-0.3-0.2l-0.2-0.1l-0.2-0.1l-0.1-0.1L15,12.2l-0.1-0.1l-0.1,0l-0.1,0l-0.1,0l0,0l0,0l-0.1-0.1
							l0,0l-0.1-0.1l0.1-0.5v0l0.1-0.5l0,0l0,0l0,0l0,0l0.1,0l0.1,0l0.1,0l0.1,0l0.1,0.1l0.1,0.1l0.2,0.1l0.2,0.1l0.3,0.2l0.6,0.3
							l0.3,0.2l0.9,0.6l0.8,0.5c0.6,0.4,1.2,0.8,1.8,1.2c0.3,0.2,0.6,0.4,0.9,0.7c0.6,0.5,1.1,1,1.7,1.5l1.3,1.2
							C24.3,18.2,24.4,18.6,24.4,19z"/>
					</g>
					<g id="Group_80" transform="translate(0.9 2.251)">
						<path id="Path_6613" class="st24" d="M7.9,7.9C7.2,7.3,6.6,6.7,6,6.1L0.5,0.2C0.3,0,0.1-0.1,0,0.1c0,0.1,0,0.3,0.2,0.5L5.7,7
							c1.2,1.5,2.6,2.8,4.1,4.1l3.9,3.1l0.3-0.8L7.9,7.9z"/>
						<path id="Path_6614" class="st24" d="M24.1,23.9l-2.3-2.4c-0.5-0.6-1.1-1.1-1.6-1.6c-0.1-0.1-0.2-0.2-0.3-0.3l-0.5-0.5
							L16.9,17L16,16.2l-0.3-0.3l-0.6-0.5l-0.3-0.3l-0.2-0.2l-0.1-0.1l-0.1-0.1l-0.1-0.1l-0.1-0.1l-0.1-0.1l-0.1-0.1l0,0l0,0l0,0
							l0,0l0,0l-0.1-0.1h0l0.2-0.4l0,0v0l0.2-0.4l0,0l0,0l0,0l0,0l0,0l0.1,0l0.1,0.1l0.1,0.1l0.1,0.1l0.1,0.1l0.2,0.1l0.2,0.2
							l0.3,0.3l0.6,0.4l0.3,0.3l0.9,0.7l0.8,0.6c0.6,0.5,1.2,1,1.7,1.5c0.3,0.3,0.6,0.5,0.8,0.8c0.5,0.6,1.1,1.1,1.6,1.8l1.9,2.2
							C24,23.2,24.1,23.5,24.1,23.9z"/>
					</g>
					<g id="Group_81" transform="translate(1.963 0.214)">
						<path id="Path_6615" class="st25" d="M7.3,9.1C6.7,8.4,6.1,7.7,5.5,6.9l-5-6.6C0.3,0.1,0.1-0.1,0,0C0,0.1,0,0.3,0.2,0.5
							l4.9,7.2c1.1,1.7,2.4,3.2,3.8,4.7l3.7,3.8l0.5-0.6L7.3,9.1z"/>
						<path id="Path_6616" class="st25" d="M23.1,27.6c0,0.3,0,0.6,0,1l-2.9-3.8c-0.5-0.6-1-1.2-1.5-1.8c-0.1-0.1-0.2-0.2-0.3-0.3
							L17.9,22l-2.3-2.6l-0.9-1l-0.3-0.3l-0.5-0.6l-0.3-0.3L13.4,17l-0.1-0.2l-0.1-0.1l-0.1-0.1L13,16.6l-0.1-0.1l-0.1-0.1l0-0.1
							l0-0.1l0,0l0,0l0,0h0l-0.1-0.1l0,0l0.2-0.3l0,0l0,0l0.2-0.3l0,0l0,0l0.1,0.1l0,0.1l0.1,0.1l0.1,0.1l0.1,0.1l0.1,0.1l0.1,0.1
							l0.1,0.1l0.2,0.2l0.3,0.3l0.5,0.5l0.3,0.3l0.9,0.9l0.7,0.8c0.5,0.6,1.1,1.1,1.6,1.8c0.3,0.3,0.5,0.6,0.8,0.9
							c0.5,0.6,1,1.3,1.4,2L23.1,27.6z"/>
					</g>
					<g id="Group_82" transform="translate(4.008 0.009)">
						<path id="Path_6617" class="st24" d="M11.1,15.8L11.1,15.8L10.8,16l0,0l0,0l-0.3,0.2v0l0,0l0,0l0,0l0,0l0-0.1l0-0.1l0-0.1
							l-0.1-0.1l-0.1-0.1l-0.1-0.1L10,15.6l-0.1-0.2l-0.2-0.2l-0.3-0.4l0,0l-0.5-0.6l0,0l-0.2-0.3l-0.9-1.1l0,0L7.1,12
							c-0.5-0.6-1-1.3-1.4-1.9C5.4,9.7,5.2,9.3,4.9,8.9l0,0C4.5,8.2,4.1,7.5,3.7,6.8L0,0c0.2,0,0.3,0,0.5,0l3.8,6.2
							c0.4,0.7,0.9,1.3,1.3,2c0.1,0.1,0.2,0.2,0.3,0.4l0.5,0.7l2.1,2.8l0.8,1.1l0.2,0.3l0.5,0.7l0.3,0.4l0.2,0.2l0.1,0.2l0.1,0.1
							l0.1,0.1l0.1,0.1l0.1,0.1l0,0.1l0,0.1l0,0.1l0,0.1l0,0.1L11.1,15.8L11.1,15.8L11.1,15.8L11.1,15.8z"/>
						<path id="Path_6618" class="st24" d="M20.8,30.6c0,0.2-0.1,0.5-0.2,0.7l-3.3-5.5c-0.4-0.7-0.9-1.3-1.3-2
							c-0.1-0.1-0.2-0.2-0.3-0.4l-0.4-0.6L13.2,20l-0.8-1.1l-0.3-0.4l-0.5-0.7l-0.3-0.4l-0.2-0.2l-0.1-0.2L11,17l-0.1-0.1l-0.1-0.1
							l-0.1-0.1l0-0.1l0-0.1l0-0.1l0-0.1l0,0l0-0.1l0,0l-0.1-0.1l0.3-0.2l0,0l0,0l0.3-0.2l0,0l0,0l0,0l0,0l0,0.1l0,0.1l0,0.1
							l0.1,0.1l0.1,0.1l0.1,0.1l0.1,0.1l0.1,0.2l0.2,0.2l0.3,0.4l0.5,0.6l0.3,0.4l0.8,1l0.7,0.9c0.5,0.6,1,1.3,1.5,2
							c0.2,0.3,0.5,0.7,0.7,1c0.4,0.7,0.9,1.4,1.3,2.1L20.8,30.6z"/>
					</g>
					<g id="Group_83" transform="translate(6.236 0.356)">
						<path id="Path_6619" class="st25" d="M8.9,15.5L8.9,15.5l-0.3,0.1h0l-0.3,0.1l0,0l0,0l0,0l0,0l0-0.1l0-0.1l0-0.1l0-0.1l0-0.1
							l-0.1-0.1l-0.1-0.1l-0.1-0.1l-0.1-0.2l-0.2-0.3l-0.2-0.4l-0.4-0.7l0,0l-0.2-0.3L5.8,12l0,0l-0.6-0.9C4.8,10.4,4.4,9.7,4,9
							C3.7,8.6,3.5,8.2,3.4,7.8C3,7.1,2.6,6.4,2.3,5.6L0,0c0.2,0.1,0.4,0.1,0.7,0.2l2.4,5C3.4,6,3.8,6.7,4.2,7.4
							c0.1,0.1,0.1,0.3,0.2,0.4l0.4,0.7l1.8,3.1l0.7,1.2l0.2,0.4l0.4,0.7l0.2,0.4l0.2,0.3l0.1,0.2l0.1,0.1l0.1,0.1L8.6,15l0,0.1
							l0,0.1l0,0.1l0,0.1l0,0.1l0,0.1l0,0v0l0,0L8.9,15.5z"/>
						<path id="Path_6620" class="st25" d="M17.8,32.9c-0.1,0.2-0.1,0.3-0.2,0.5l-3.5-7.3c-0.3-0.7-0.7-1.4-1.1-2.1
							c-0.1-0.1-0.1-0.3-0.2-0.4L12.3,23l-1.8-3.1l-0.7-1.2l-0.2-0.4l-0.4-0.7L9,17.2l-0.2-0.3l-0.1-0.2l-0.1-0.1l-0.1-0.1l-0.1-0.1
							l0-0.1l0-0.1l0-0.1l0-0.1l0-0.1l0-0.1l0-0.1l-0.1-0.1l0,0l0.3-0.1l0,0l0.3-0.1l0,0l0,0l0,0.1l0,0.1l0,0.1l0,0.1l0,0.1L9.2,16
							l0.1,0.1l0.1,0.1l0.1,0.2l0.2,0.3l0.2,0.4l0.4,0.7l0.3,0.4l0.7,1.1l0.6,0.9c0.4,0.7,0.9,1.4,1.3,2.1c0.2,0.4,0.4,0.7,0.6,1.1
							c0.4,0.7,0.7,1.5,1,2.2L17.8,32.9z"/>
					</g>
					<g id="Group_84" transform="translate(8.36 1.093)">
						<path id="Path_6621" class="st24" d="M6.8,14.9l-0.4,0h0L6,15l0,0l0,0l0,0l-0.1-0.1l0,0l0-0.1l0-0.1l0-0.1l0-0.1l-0.1-0.1
							l-0.1-0.1L5.6,14l-0.1-0.3l-0.2-0.4l-0.4-0.7l0,0l-0.2-0.4L4,11l-0.5-1c-0.4-0.7-0.7-1.4-1-2.2C2.3,7.4,2.2,7,2,6.6
							C1.8,5.9,1.5,5.1,1.3,4.4L0,0c0.3,0.1,0.5,0.2,0.8,0.4l1.4,3.8C2.4,4.9,2.7,5.6,3,6.4C3,6.5,3.1,6.6,3.2,6.8l0.3,0.7l1.4,3.2
							L5.5,12l0.2,0.4L6,13.1l0.2,0.4l0.1,0.3L6.4,14l0.1,0.1l0.1,0.1l0,0.1l0,0.1l0,0.1l0,0.1l0,0.1l0,0.1l0,0.1L6.8,14.9L6.8,14.9
							L6.8,14.9z"/>
						<path id="Path_6622" class="st24" d="M9.7,23.1c0.4,0.9,0.7,1.7,1,2.6l2.7,7.6c0.1,0.3,0.3,0.5,0.4,0.5c0.1,0,0.1-0.2,0-0.4
							l-2.3-7.9c-0.6-1.9-1.3-3.8-2.2-5.6l-2.5-5L6,15L9.7,23.1z"/>
					</g>
					<g id="Group_85" transform="translate(10.342 2.107)">
						<path id="Path_6623" class="st25" d="M4.9,14l-0.4-0.1h0l0,0l0,0L4,13.9l0,0l0,0l0-0.1l0,0l0-0.1l0-0.1l0-0.1l0-0.1l0-0.1
							l0-0.1l0-0.1l-0.1-0.2l-0.1-0.2l-0.1-0.3l-0.2-0.4l-0.3-0.7L3,11.1L2.5,9.8l-0.4-1C1.8,8,1.5,7.3,1.3,6.5
							C1.2,6.1,1.1,5.7,1,5.4C0.8,4.6,0.7,3.9,0.5,3.2L0,0c0.3,0.2,0.6,0.3,0.8,0.5l0.6,2.7c0.2,0.7,0.4,1.4,0.6,2.2
							c0,0.1,0.1,0.3,0.1,0.4l0.2,0.7l1.1,3.2L3.9,11L4,11.4l0.2,0.7l0.1,0.4l0.1,0.3l0.1,0.2l0,0.2l0,0.1l0,0.1l0,0.1l0,0.1l0,0.1
							l0,0.1l0,0.1l0,0.1L4.9,14L4.9,14L4.9,14z"/>
						<path id="Path_6624" class="st25" d="M6.7,22.1c0.3,0.9,0.5,1.7,0.7,2.6l1.8,7.5c0.1,0.3,0.2,0.6,0.4,0.6
							c0.1,0,0.1-0.1,0.1-0.3l-1.3-7.7c-0.3-1.9-0.9-3.8-1.5-5.6l-2-5.1L4,13.9L6.7,22.1z"/>
					</g>
					<g id="Group_86" transform="translate(12.155 3.296)">
						<path id="Path_6625" class="st24" d="M3.1,12.9l-0.4-0.2h0l0,0l0,0l-0.4-0.2v0l0,0l0,0l0,0l0,0l0-0.1l0-0.1l0-0.1l0-0.1l0-0.1
							l0-0.1l0-0.1l0,0l0-0.1l-0.1-0.2l-0.1-0.3l-0.1-0.4l-0.2-0.7L1.5,9.8L1.1,8.5l-0.3-1C0.7,6.8,0.5,6,0.4,5.3
							C0.3,4.9,0.3,4.6,0.2,4.2C0.1,3.5,0.1,2.8,0.1,2.1L0,0c0.3,0.2,0.6,0.4,0.9,0.7L1,2.4c0.1,0.7,0.2,1.4,0.3,2.1
							c0,0.1,0.1,0.3,0.1,0.4l0.1,0.7l0,0l0.7,3.2L2.5,10l0.1,0.4l0.1,0.7l0.1,0.4l0.1,0.3l0,0.2l0,0.1l0,0.1l0,0.1l0,0.1l0,0.1
							l0,0.1l0,0.1l0,0.1l0,0.1l0,0L3.1,12.9L3.1,12.9z"/>
						<path id="Path_6626" class="st24" d="M3.8,20.6c0.2,0.8,0.3,1.7,0.4,2.5L5,30.3c0,0.3,0.2,0.6,0.3,0.6c0.1,0,0.2-0.1,0.2-0.3
							l-0.2-7.2c-0.1-1.8-0.3-3.6-0.8-5.4l-1.3-5.1l-0.9-0.3L3.8,20.6z"/>
					</g>
					<g id="Group_87" transform="translate(13.51 4.608)">
						<path id="Path_6627" class="st25" d="M1.7,11.7L1.7,11.7l-0.4-0.3l0,0l0,0l0,0l-0.4-0.3l0,0l0,0l0-0.1l0-0.1l0-0.1l0-0.1
							l0-0.1l0-0.1l0-0.1l0-0.1l0-0.2l0-0.3L0.6,9.6L0.5,8.9l0-0.4L0.3,7.3l-0.1-1C0.1,5.6,0,4.9,0,4.2c0-0.4,0-0.7,0-1.1
							c0-0.6,0.1-1.3,0.1-1.9L0.3,0c0.3,0.3,0.6,0.5,0.9,0.8l0,0.9c0,0.6,0,1.3,0,1.9l0,0c0,0.1,0,0.3,0,0.4l0,0.7l0.2,3l0.1,1.2
							l0,0.4l0,0.7l0,0.4l0,0.3l0,0.2l0,0.1l0,0.1l0,0.1l0,0.1l0,0.1v0.1l0,0.1v0.1l0,0.1L1.7,11.7L1.7,11.7L1.7,11.7z"/>
						<path id="Path_6628" class="st25" d="M1.4,18.8c0.1,0.8,0.1,1.6,0,2.3l-0.3,6.7c0,0.2,0.1,0.5,0.2,0.6c0.1,0.1,0.2,0,0.2-0.2
							l0.9-6.6c0.2-1.7,0.2-3.4-0.1-5.1l-0.6-4.9l-0.9-0.5L1.4,18.8z"/>
					</g>
					<g id="Group_88" transform="translate(12.137 6.002)">
						<path id="Path_6629" class="st24" d="M4.1,0.9L4,1.3C3.9,1.9,3.8,2.5,3.7,3c0,0.1,0,0.2,0,0.3l0,0.6L3.4,6.8L3.3,7.9l0,0.3
							L3.2,8.8l0,0.4l0,0.2l0,0.2l0,0.1l0,0.1l0,0.1l0,0.1l0,0.1l0,0.1l0,0.1v0v0.1l0,0.1l0,0l0,0.1L2.7,10l0,0l0,0l0,0l0,0L2.2,9.7
							v0v0V9.4V9.3V9.1V9V8.8l0-0.2V8.2l0-0.7V7.2l0-1.1l0-0.9c0-0.6,0-1.3,0.1-1.9c0-0.3,0.1-0.6,0.1-0.9l0,0
							C2.6,1.7,2.8,1.1,3,0.6L3.2,0C3.5,0.3,3.8,0.6,4.1,0.9z"/>
						<path id="Path_6630" class="st24" d="M1.7,16.7c-0.1,0.7-0.2,1.4-0.3,2.1L0,24.7c-0.1,0.2,0,0.4,0.2,0.6
							c0.1,0.1,0.2,0,0.3-0.1l1.9-5.7c0.5-1.5,0.7-3,0.7-4.6l0-4.5L2.2,9.7L1.7,16.7z"/>
					</g>
					<g id="Group_89" transform="translate(9.698 7.456)">
						<path id="Path_6631" class="st25" d="M7.9,1L7.9,1c-0.2,0.5-0.4,1-0.6,1.5c0,0.1-0.1,0.2-0.1,0.3L7,3.4L6.4,5.8L6.1,6.8L6,7.1
							L5.9,7.6L5.8,7.9L5.8,8.2l0,0.1l0,0.1l0,0.1l0,0.1l0,0.1l0,0.1l0,0.1l0,0l0,0l0,0l0,0l0,0.1L5.1,8.6l0,0l0,0l0,0l0,0L4.7,8.2
							l0,0l0,0l0,0l0,0l0,0l0-0.1l0-0.1l0-0.1l0-0.1l0-0.1l0-0.1l0-0.2l0-0.2l0.1-0.3L5,6.2l0.1-0.3l0.2-1l0.1-0.8
							C5.5,3.5,5.7,3,5.9,2.4C5.9,2.1,6,1.9,6.2,1.6c0.2-0.5,0.4-1,0.7-1.4L7,0C7.3,0.3,7.6,0.7,7.9,1z"/>
						<path id="Path_6632" class="st25" d="M3,14.3c-0.2,0.6-0.4,1.2-0.7,1.8l-2.3,5C0,21.3,0,21.5,0.1,21.7c0.1,0.1,0.2,0.1,0.3,0
							c0,0,0,0,0-0.1L3.3,17c0.7-1.2,1.2-2.5,1.5-3.9L5.5,9L4.7,8.2L3,14.3z"/>
					</g>
					<g id="Group_90" transform="translate(7.4 8.968)">
						<path id="Path_6633" class="st24" d="M11.4,1.1c-0.3,0.3-0.5,0.7-0.7,1.1c0,0.1-0.1,0.2-0.1,0.3l-0.2,0.4l-1.1,2L8.8,5.7
							L8.6,6L8.4,6.4L8.2,6.7L8.2,6.9L8.1,7l0,0.1l0,0.1l0,0.1l0,0.1l0,0l0,0l0,0l0,0.1l0,0l0,0.1L7.4,7.1l0,0l0,0l0,0L7,6.6l0,0
							l0,0l0,0l0,0l0,0l0-0.1l0-0.1l0-0.1l0-0.1l0-0.1l0.1-0.1l0.1-0.2l0.1-0.3l0.2-0.5l0.1-0.3l0.3-0.9l0.3-0.7
							c0.2-0.5,0.4-1,0.7-1.4c0.1-0.2,0.3-0.4,0.4-0.6c0.3-0.4,0.6-0.7,1-1.1C10.8,0.4,11.1,0.7,11.4,1.1z"/>
						<path id="Path_6634" class="st24" d="M4.3,11.7c-0.3,0.5-0.6,1-1,1.5L0.1,17c-0.1,0.2-0.1,0.4,0,0.5c0.1,0.1,0.2,0.1,0.3,0.1
							c0,0,0,0,0,0l3.8-3.4c0.9-0.9,1.7-2,2.1-3.1l1.4-3.5L7,6.6L4.3,11.7z"/>
					</g>
					<g id="Group_91" transform="translate(5.314 10.537)">
						<path id="Path_6635" class="st25" d="M14.6,1.2C14.3,1.4,14,1.7,13.7,2c-0.1,0.1-0.1,0.1-0.2,0.2l-0.3,0.3L11.7,4l-0.6,0.6
							L11,4.8l-0.3,0.3l-0.2,0.2l-0.1,0.1l-0.1,0.1l-0.1,0.1l-0.1,0.1l0,0l0,0l0,0l0,0l0,0l0,0l0,0l0,0l0,0L9.5,5.5l0,0l0,0L9.1,5
							l0,0l0,0l0,0l0,0l0,0l0,0l0,0l0,0l0-0.1l0-0.1l0.1-0.1l0.1-0.1l0.1-0.1l0.2-0.2l0.3-0.4l0.2-0.2l0.5-0.7l0.4-0.5
							c0.4-0.6,1-1.1,1.6-1.6c0.3-0.2,0.7-0.5,1.1-0.6C14.1,0.4,14.3,0.8,14.6,1.2z"/>
						<path id="Path_6636" class="st25" d="M5.5,8.9C5.1,9.3,4.7,9.6,4.2,9.9l-4,2.7C0,12.7,0,12.9,0.1,13.1
							c0.1,0.1,0.2,0.2,0.4,0.1L5,11.1c1.1-0.5,2.1-1.3,2.8-2.3l2-2.8L9.1,5L5.5,8.9z"/>
					</g>
					<g id="Group_92" transform="translate(3.507 12.186)">
						<path id="Path_6637" class="st24" d="M17.4,1.3c-0.4,0.1-0.7,0.3-1.1,0.5c-0.1,0-0.2,0.1-0.2,0.1l-0.4,0.2l-1.8,1l-0.7,0.4
							L13,3.6l-0.4,0.2L12.4,4l-0.1,0.1l-0.1,0.1L12,4.2l-0.1,0l-0.1,0l0,0l0,0l0,0l0,0l0,0l0,0l0,0l0,0l-0.1,0l-0.3-0.6l0,0l0,0
							L11,3.3l0,0l0,0l0,0l0,0l0,0l0,0l0,0l0,0l0.1,0L11.4,3l0.1-0.1l0.1-0.1l0.2-0.2l0.4-0.3l0.2-0.2l0.6-0.5l0.5-0.4
							C14,1,14.4,0.8,14.8,0.6c0.2-0.1,0.4-0.2,0.7-0.3c0.4-0.1,0.8-0.2,1.2-0.3C16.9,0.4,17.2,0.8,17.4,1.3z"/>
						<path id="Path_6638" class="st24" d="M6.5,5.9C6,6.1,5.5,6.3,5,6.5L0.2,7.9C0.1,7.9,0,8.1,0,8.2c0,0,0,0,0,0.1
							c0.1,0.1,0.2,0.2,0.4,0.2l5.3-0.8C6.9,7.6,8,7.1,9,6.4l2.6-2L11,3.3L6.5,5.9z"/>
					</g>
					<g id="Group_93" transform="translate(2.037 13.891)">
						<path id="Path_6639" class="st25" d="M19.8,1.4c-0.4,0-0.9,0.1-1.3,0.1c-0.1,0-0.2,0-0.3,0.1l-0.4,0.1l-2.1,0.5l-0.8,0.2
							l-0.3,0.1l-0.5,0.1l-0.3,0.1l-0.2,0l-0.1,0l-0.1,0l-0.1,0l-0.1,0l-0.1,0l0,0l0,0l0,0l0,0l0,0l0,0l-0.1,0l-0.2-0.6l0,0l0,0
							l-0.2-0.6l0,0l0,0l0,0l0,0l0,0l0,0l0,0l0.1,0l0.1,0l0.1,0l0.1,0l0.2-0.1l0.3-0.1L14,1L14.3,1L15,0.7l0.6-0.2
							c0.5-0.2,0.9-0.3,1.4-0.4c0.3,0,0.5-0.1,0.8-0.1c0.4,0,0.9,0,1.3,0C19.4,0.5,19.6,0.9,19.8,1.4z"/>
						<path id="Path_6640" class="st25" d="M7.3,2.7C6.7,2.9,6.1,2.9,5.6,2.9L0.3,3C0.1,3,0,3.2,0,3.3c0.1,0.1,0.2,0.2,0.4,0.3
							l5.7,0.6c1.3,0.2,2.6,0,3.8-0.4L13,2.7l-0.5-1.2L7.3,2.7z"/>
					</g>
					<g id="Group_94" transform="translate(0.949 13.684)">
						<path id="Path_6641" class="st24" d="M21.8,3.5l-0.1,0c-0.5-0.1-1.1-0.2-1.6-0.2c-0.1,0-0.2,0-0.3,0l-0.5,0L17,3.1l-0.9,0
							l-0.3,0l-0.5,0L15,3l-0.2,0l-0.1,0l-0.1,0h-0.1l-0.1,0h-0.1h-0.1h0h0h0h0h-0.1H14l-0.2-0.6l0,0l0,0l0,0l-0.2-0.6h0h0h0l0,0h0
							h0l0.1,0h0.1l0.1,0l0.1,0l0.1,0l0.2,0l0.3,0l0.5,0l0.3,0l0.8-0.1l0.7,0c0.5,0,1.1,0,1.6,0c0.3,0,0.5,0.1,0.8,0.1
							c0.5,0.1,1.1,0.2,1.6,0.4C21.4,2.6,21.6,3,21.8,3.5z"/>
						<path id="Path_6642" class="st24" d="M7.9,1.5C7.3,1.5,6.6,1.4,6,1.3L0.3,0C0.1,0,0,0.1,0,0.2c0.1,0.2,0.2,0.3,0.4,0.3l6.1,2
							C7.7,3,9.1,3.2,10.5,3.2L14,2.9l-0.3-1.2L7.9,1.5z"/>
					</g>
					<g id="Group_95" transform="translate(0.276 10.514)">
						<path id="Path_6643" class="st25" d="M23.2,8.7l-0.5-0.2c-0.6-0.2-1.1-0.4-1.7-0.6c-0.1,0-0.2-0.1-0.3-0.1l-0.5-0.1l-2.5-0.7
							l-0.9-0.2l-0.3-0.1L16,6.5l-0.3-0.1l-0.2-0.1l-0.1,0l-0.1,0l-0.1,0l-0.1,0l-0.1,0l-0.1,0l-0.1,0l0,0l0,0l0,0l0,0l-0.1,0l0,0
							l-0.1-0.6l0,0l0,0l0,0L14.4,5l0,0l0,0l0,0l0,0l0,0l0,0l0.1,0l0.1,0l0.1,0l0.1,0l0.1,0l0.1,0l0.2,0l0.3,0.1l0.5,0.1l0.3,0.1
							l0.9,0.2l0.7,0.1c0.6,0.1,1.1,0.2,1.7,0.4c0.3,0.1,0.6,0.2,0.9,0.3c0.6,0.2,1.2,0.5,1.7,0.8l0.2,0.1
							C22.9,7.7,23.1,8.2,23.2,8.7z"/>
						<path id="Path_6644" class="st25" d="M8.3,3.3c-0.7-0.2-1.3-0.4-2-0.7L0.4,0C0.2-0.1,0,0,0,0.2c0.1,0.2,0.2,0.3,0.3,0.4
							l6.2,3.3c1.3,0.7,2.8,1.3,4.3,1.6l3.8,0.7L14.4,5L8.3,3.3z"/>
					</g>
					<g id="Group_96" transform="translate(9.011 8.592)">
						<path id="Path_6645" class="st26" d="M11.6,10.8c0,3.7-2.6,5.2-5.8,3.3C2.4,11.9,0.2,8.2,0,4.1c0-3.7,2.6-5.2,5.8-3.3
							C9.2,3,11.4,6.7,11.6,10.8z"/>
						<path id="Path_6646" class="st27" d="M8.1,8.8c0,1.5-1,2.1-2.3,1.3c-1.4-0.9-2.2-2.4-2.3-4c0-1.5,1-2.1,2.3-1.3
							C7.2,5.7,8,7.2,8.1,8.8z"/>
					</g>
				</g>
				<g id="Group_98" transform="translate(16.317 15.775)">
					<path id="Path_6647" class="st17" d="M10.3,14.8c1.4-0.4,2.2-1.8,2.2-4c-0.2-4.1-2.4-7.8-5.8-10c-2.1-1.2-3.9-1-4.9,0.3h0
						l0,0.1C1.7,1.3,1.6,1.5,1.5,1.7C0.3,3.8-0.2,6.2,0.1,8.6c0.8,1,1.4,2.2,1.9,3.4c2,1.5,4.3,2.5,6.8,2.9c0.4,0.1,0.8,0.1,1.1,0
						h0.1c0,0,0,0,0.1,0l0,0C10.1,14.8,10.2,14.8,10.3,14.8z"/>
					<path id="Path_6648" class="st17" d="M4.7,10.9c0,1.5-1,2.1-2.3,1.3c-1.4-0.9-2.2-2.4-2.3-4c0-1.5,1-2.1,2.3-1.3
						C3.8,7.8,4.7,9.3,4.7,10.9z"/>
					<path id="Path_6649" class="st12" d="M6.6,6.5C6,8.1,4.7,9,3.6,8.6s-1.6-2-1-3.5s1.9-2.5,3-2.1S7.1,4.9,6.6,6.5z"/>
				</g>
			</g>
			<path id="Path_6650" class="st17" d="M79.5,5c0,0-26.5,6.2-34.7,10S22.2,30,22.2,30l0,0c-0.1-0.1-3.1-1.7-3.6-1.9
				s4.2-12.7,8.8-14.6S65.1-0.3,68.2,0c2.6,0.2,8.8,3.6,10.7,4.7l0,0C79.3,4.9,79.5,5,79.5,5z"/>
			<path id="Path_6651" class="st21" d="M79.5,5c0,0-26.5,6.2-34.7,10S22.2,30,22.2,30l0,0c-0.5-0.3,4.2-12.7,8.8-14.6
				S68.7,1.6,71.8,1.9c1.6,0.2,4.6,1.5,7.1,2.8l0,0C79.3,4.9,79.5,5,79.5,5z"/>
		</g>
		<g id="Group_108" transform="translate(33.811)">
			<g id="Group_103">
				<path id="Path_6652" class="st10" d="M5.6,68L0,14.4L18.4,0l1.9,0.4L8.1,72.7L5.6,68z"/>
				<path id="Path_6653" class="st10" d="M217.7,308l-4.4-22.8l-101.4-75.2L8.1,72.7l-0.6-4.2l168,86l159.3,86L217.7,308z"/>
				<path id="Path_6654" class="st12" d="M217.1,303.7l-4.4-22.8l-101.4-75.2L7.5,68.4l27.7-21.8L175,150.2l159.3,86L217.1,303.7z"
					/>
				<path id="Path_6655" class="st17" d="M7.5,68.4L1.9,14.9L20.4,0.4l14.8,46.2L7.5,68.4z"/>
				<g id="Group_101" transform="translate(173.482 156.568)">
					<path id="Path_6656" class="st16" d="M104.2,65.7l-0.6-0.3L0,7.2L12.6,0l1.2,2l-9,5.2L104.2,63l12.2-7l1.2,2L104.2,65.7z"/>
				</g>
				<g id="Group_102" transform="translate(48.36 63.219)">
					<path id="Path_6657" class="st16" d="M83.5,70.5L82.9,70L0,5.8L10,0l1.1,2l-7,4l79.5,61.7l10-5.8l1.2,2L83.5,70.5z"/>
				</g>
				<path id="Path_6658" class="st11" d="M7.5,68.4l5.6-4.4L134,198.3l103.7,73.9l-20.6,31.6l-4.4-22.8l-101.4-75.2L7.5,68.4z"/>
			</g>
			<g id="Group_104" transform="translate(39.801 117.883)">
				<path id="Path_6659" class="st16" d="M537.2,15.9c-1.2,1.7-51.4,59.9-76.2,78.9l-24.8,19l-77.6,45L102,307.6
					c0,0-69.7,28.4-101.9,9.8c0,0-1-4.1,2.7-13.6c1.2-3.1,2.6-6.1,4.2-9c2.9-5.3,6.2-10.4,9.7-15.3c1.5-2.2,6-10.2,6.9-11.5
					c13.5-17.6,51.7-42.1,51.7-42.1L295.6,98c2.9-1.7,5-2.9,5.9-3.5l0.6-0.3c0,0,0.1,0,0.1,0l0.3-0.2l58.9-34.2
					c0,0,29.3-17.7,57-25.6S516.3,0.9,526.9,0c2.9-0.3,5.7,1,7.4,3.3c1,1.3,1.8,2.8,2.3,4.3C537.8,11.3,537.7,15.2,537.2,15.9z"/>
			</g>
			<path id="Path_6660" class="st11" d="M93.5,362.7c0,0-22.5,17.9-28.7,29.1c5.2,5.8,26.4,6.7,44.2-0.8
				c17.8-7.5,320.3-190.3,345.6-201.7s110.6-65,109-67.6c-1.6-2.6-60,18.1-89.8,28.1c-29.7,10-46.5,14.3-76.9,32.5
				S93.5,362.7,93.5,362.7z"/>
			<path id="Path_6661" class="st17" d="M577,133.8c-1.2,1.7-51.4,59.9-76.2,78.9l-24.8,19L141.8,425.5c0,0-69.7,28.4-101.9,9.8
				c0,0-1-4.1,2.7-13.6c1.2-3.1,2.6-6.1,4.2-9c-2.2,6.9-4.1,14.1-3.5,17c0,0,16.8,1.1,46.5-6.9c29.8-7.9,51.2-21.5,75-35.2
				c23.9-13.7,274.5-161.1,314-187.6c36.1-24.2,80.9-64.6,95.2-78.8c1,1.3,1.8,2.8,2.3,4.3C577.6,129.2,577.5,133,577,133.8z"/>
			<path id="Path_6662" class="st10" d="M577,133.8c-1.2,1.7-51.4,59.9-76.2,78.9l-24.8,19L141.8,425.5c0,0-69.7,28.4-101.9,9.8
				c0,0-1-4.1,2.7-13.6c-1.5,4.3-1.5,5.9-1.6,10.2c30.5,8.7,77.5-9.3,105.2-24.1c27.6-14.8,303.7-174.7,329.3-192.6
				c25.6-17.8,73.7-64.1,85.5-74.8c7.3-6.6,12.5-11.8,15.4-14.9C577.6,129.2,577.5,133,577,133.8z"/>
			<path id="Path_6663" class="st18" d="M577,133.8c-1.2,1.7-51.4,59.9-76.2,78.9l-24.8,19L141.9,425.5c0,0-69.7,28.5-102,9.8
				c-0.2-1.3-0.2-2.7,0.1-4c0.4,1.4,1.4,2.6,2.7,3.3c27.6,8.5,73-4.4,98.3-15.6s290-168,336.6-195.6c44.9-26.5,95.7-90.4,99.6-94.9
				C577.6,131.1,577.3,133.2,577,133.8z"/>
			<path id="Path_6664" class="st28" d="M262.6,350.8c0,0,23.8-0.9,54.4-16.2c30.6-15.3,116.9-57.8,140.2-80.1
				c8.4-8,8.9-16.6,8.9-16.6s-67.2,24.1-72.9,25.9c-4.5,1.4-68.4,38.2-120,68.2C259,340.2,262.6,350.8,262.6,350.8z"/>
			<path id="Path_6665" class="st16" d="M444.6,249.8c0,0-4.5,9-23,18.8c-11.3,6-23.1,11-35.2,15c0,0-1.9-11,5-15
				C398.4,264.5,428.7,250.5,444.6,249.8z"/>
			<path id="Path_6666" class="st18" d="M445.9,245.1l-11.1,4c0,0,33.8-7.7,5.6,13.3c-21.3,15.9-145.5,80.1-153.9,80.3
				s-13.3-6.4-13.3-6.4s2.2,5.9-10.1,6.4l0,0.1c-0.2,1-0.5,1.9-0.8,2.8c-0.3,1.8-0.2,3.6,0.2,5.3c0,0,23.8-0.9,54.4-16.2
				s116.9-57.8,140.2-80.1c8.4-8,8.9-17.1,8.9-17.1S459.9,240.1,445.9,245.1z"/>
			<path id="Path_6667" class="st10" d="M273.3,342.8l39.5-0.7l130.3,58.6l237.8,59.9l37.7-16v-3.5l-5.1,1.2L539.2,364l-226.6-26.7
				l-39.4-1.1L273.3,342.8z"/>
			<path id="Path_6668" class="st29" d="M55.5,398.8c0,0-0.2,1.6,3,4.6s11.2,5.6,20.5,5.8s19.6-4.1,19.6-4.1s-0.1-5.3,0-7.3
				S86.7,399,78,398.4s-15.9-4.8-15.9-6.5c0.3-2,0.7-4,1.4-6L55.5,398.8z"/>
			<g id="Group_107" transform="translate(273.264 268.547)">
				<path id="Path_6669" class="st12" d="M0,67.6l39.5,2.5l130.3,58.6l237.8,59.9l37.7-16L266,92L117.1,0L0,67.6z"/>
				<path id="Path_6670" class="st10" d="M407.6,188.6l21.8-37.7l25-10.6l-9.1,32.4L407.6,188.6z"/>
				<g id="Group_105" transform="translate(141.182 24.302)">
					<path id="Path_6671" class="st16" d="M101.2,68.5L0,8.3L14.4,0l1.1,2l-11,6.4l96.7,57.5l10.2-5.9l1.2,2L101.2,68.5z"/>
				</g>
				<g id="Group_106" transform="translate(294.339 109.666)">
					<path id="Path_6672" class="st16" d="M112.1,55.5l-0.5-0.2L0,7.3L12.6,0l1.1,2L5.1,7L112,52.9l8-4.6l1.2,2L112.1,55.5z"/>
				</g>
				<path id="Path_6673" class="st11" d="M407.6,188.6l7.7-3.2l-230.1-69.5L57.2,56L0,67.6l39.5,2.5l130.3,58.6L407.6,188.6z"/>
			</g>
		</g>
		<path id="Path_6674" class="st12" d="M80.5,427.6c0,0,27-9.1,36.1-18.3c3.6-6.5,6.5-11.7,6.5-11.7s10.3-15.2,22.6-23.1
			C157.9,366.6,430.1,208,453,197.5s152.6-74.4,152.6-74.4c-0.9-1.5-2.1-2.7-3.6-3.6c-4.3,2.1-143.5,64-154,69.7
			c-10.5,5.7-295.7,169.3-311.1,180s-25.1,29.2-25.1,29.2l-7.2,9.9C104.6,408.4,86.6,418.2,80.5,427.6z"/>
		<path id="Path_6675" class="st11" d="M598,1.7l-24.3,17.4c-11.7,8.4-22.1,22.3-27.8,37.5c-10.5,27.6-28,70.9-39.2,84.4
			c-16.9,20.4-28.6,29.6-28.6,29.6l-1.7,1.6l2.7-0.5l119.6-52.2l-2.4-1.3l-23.1-7l13.4-50.1l13.7-57.9L598,1.7z"/>
		<path id="Path_6676" class="st16" d="M574.4,113.5l24.3,6l-61.8,27.6l-18.9,8.1l-38.9,16.5c0,0,11.9-8,28.7-28.4
			c11.2-13.5,28.7-56.9,39.2-84.4c5.8-15.1,16.1-29,27.8-37.4l3.1-2.3l0,0l22.3-16l-12.5,60.2L574.4,113.5z"/>
		<path id="Path_6677" class="st10" d="M554.1,176.1l12.5,3.5l114.8,26.9l31.6-13.6l1.5-3l-167-18.2L554.1,176.1z"/>
		<path id="Path_6678" class="st11" d="M547.5,171.7l19.1,4.6L683,203.5l31.6-13.6l-106.9-52.9L547.5,171.7z"/>
	</g>
	<g id="Group_120" transform="translate(347.834 187.359)">
		<g id="Group_112" transform="translate(0 21.678)">
			<path id="Path_6679" class="st30" d="M113,104c-1,0-1.9-0.7-2.2-1.7l-2.1-5.7c-0.5-1.4,0-2.9,1.2-3.8l3.9-2.3
				c0.3-0.2,0.7-0.3,1.1-0.3c1,0,1.9,0.7,2.2,1.7l2.1,5.7c0.5,1.4,0,2.9-1.2,3.8l-3.9,2.3C113.7,103.9,113.4,104,113,104z"/>
			<path id="Path_6680" class="st29" d="M110.2,93.3l3.9-2.3c0.8-0.4,1.8-0.1,2.3,0.7c0.1,0.1,0.1,0.3,0.1,0.4l2.1,5.7
				c0.4,1.1,0,2.4-0.9,3l-3.9,2.3c-0.8,0.4-1.8,0.1-2.3-0.7c-0.1-0.1-0.1-0.3-0.1-0.4l-2.1-5.7C108.8,95.3,109.2,94,110.2,93.3z"/>
			<path id="Path_6681" class="st30" d="M93.6,115.2c-1,0-1.9-0.7-2.2-1.7l-2.1-5.7c-0.5-1.4,0-2.9,1.2-3.8l3.9-2.3
				c0.3-0.2,0.7-0.3,1.1-0.3c1,0,1.9,0.7,2.2,1.7l2.1,5.7c0.5,1.4,0,2.9-1.2,3.8l-3.9,2.3C94.3,115.1,94,115.2,93.6,115.2z"/>
			<path id="Path_6682" class="st29" d="M90.8,104.5l3.9-2.3c0.8-0.4,1.8-0.1,2.3,0.7c0.1,0.1,0.1,0.3,0.2,0.4l2.1,5.7
				c0.4,1.1,0,2.4-0.9,3l-3.9,2.3c-0.8,0.4-1.8,0.1-2.3-0.7c-0.1-0.1-0.1-0.3-0.1-0.4l-2.1-5.7C89.5,106.5,89.8,105.2,90.8,104.5z"
				/>
			<path id="Path_6683" class="st30" d="M74.2,126.4c-1,0-1.9-0.7-2.2-1.7l-2.1-5.7c-0.5-1.4,0-2.9,1.2-3.8l3.9-2.3
				c0.3-0.2,0.7-0.3,1.1-0.3c1,0,1.9,0.7,2.2,1.7l2.1,5.7c0.5,1.4,0,2.9-1.2,3.8l-3.9,2.3C75,126.3,74.6,126.4,74.2,126.4z"/>
			<path id="Path_6684" class="st29" d="M71.4,115.7l3.9-2.3c0.8-0.4,1.8-0.1,2.3,0.7c0.1,0.1,0.1,0.3,0.1,0.4l2.1,5.7
				c0.4,1.1,0,2.4-0.9,3l-3.9,2.3c-0.8,0.4-1.8,0.1-2.3-0.7c-0.1-0.1-0.1-0.3-0.1-0.4l-2.1-5.7C70.1,117.6,70.4,116.4,71.4,115.7z"
				/>
			<path id="Path_6685" class="st30" d="M23.9,155.5c-1,0-1.9-0.7-2.2-1.7l-2.1-5.7c-0.5-1.4,0-2.9,1.2-3.8l3.9-2.3
				c0.3-0.2,0.7-0.3,1.1-0.3c1,0,1.9,0.7,2.2,1.7l2.1,5.7c0.5,1.4,0,2.9-1.2,3.8l-3.9,2.3C24.6,155.4,24.2,155.5,23.9,155.5z"/>
			<path id="Path_6686" class="st29" d="M21.1,144.8l3.9-2.3c0.8-0.4,1.8-0.1,2.3,0.7c0.1,0.1,0.1,0.3,0.1,0.4l2.1,5.7
				c0.4,1.1,0,2.4-0.9,3l-3.9,2.3c-0.8,0.4-1.8,0.1-2.3-0.7c-0.1-0.1-0.1-0.3-0.2-0.4l-2.1-5.7C19.7,146.7,20.1,145.5,21.1,144.8z"
				/>
			<path id="Path_6687" class="st30" d="M4.5,166.7c-1,0-1.9-0.7-2.2-1.7l-2.1-5.7c-0.5-1.4,0-2.9,1.2-3.8l3.9-2.3
				c0.3-0.2,0.7-0.3,1.1-0.3c1,0,1.9,0.7,2.2,1.7l2.1,5.7c0.5,1.4,0,2.9-1.2,3.8l-3.9,2.3C5.2,166.6,4.8,166.7,4.5,166.7z"/>
			<path id="Path_6688" class="st29" d="M1.7,156l3.9-2.3c0.8-0.4,1.8-0.1,2.3,0.7c0.1,0.1,0.1,0.3,0.1,0.4l2.1,5.7
				c0.4,1.1,0,2.4-0.9,3l-3.9,2.3c-0.8,0.4-1.8,0.1-2.3-0.7c-0.1-0.1-0.1-0.3-0.1-0.4L0.8,159C0.3,157.9,0.7,156.7,1.7,156z"/>
			<g id="Group_110" transform="translate(48.515 126.43)">
				<path id="Path_6689" class="st30" d="M6.3,37.5c-0.4-0.2-0.4-1.1-0.3-4.6c0.1-2,0.1-4-0.1-6c-1.3-5.5-3-10.9-5.2-16
					c-0.8-2.4-1.1-5.3,0-5.9l8.8-4.8c0.3-0.1,0.6-0.2,0.8,0c0.9,0.3,2,1.9,2.8,4c2.2,5.2,4,10.6,5.2,16.1c0.8,3.7-0.4,11.1-1.5,11.7
					L6.8,37.5c-0.1,0-0.1,0.1-0.2,0.1C6.5,37.6,6.4,37.6,6.3,37.5z M6.5,37L6.5,37z M9.8,0.6L1,5.5c-0.5,0.3-0.7,2.4,0.3,5.2
					c2.2,5.2,4,10.6,5.2,16.1c0.2,2,0.3,4.1,0.1,6.1c-0.1,1.3-0.1,2.7,0,4l9.9-5.5c0.7-0.5,2.1-7.3,1.2-11.1c-1.2-5.5-3-10.9-5.2-16
					c-0.8-2.2-1.8-3.5-2.4-3.7c-0.1,0-0.1,0-0.2,0C9.9,0.6,9.9,0.6,9.8,0.6L9.8,0.6z"/>
			</g>
			<g id="Group_111" transform="translate(261.503)">
				<path id="Path_6690" class="st12" d="M6.9,38.4c-0.4-0.2-0.4-1.2-0.4-4.7c0.1-2,0-4.1-0.2-6.1c-1.3-5.6-3.1-11-5.4-16.3
					C0,8.9-0.4,5.9,0.7,5.3l8.5-5.1C9.4,0,9.7,0,10,0.1c0.9,0.3,2,1.9,2.8,4.1c2.3,5.3,4.1,10.8,5.4,16.4c0.9,3.8-0.2,11.4-1.2,12
					l-9.7,5.9c-0.1,0-0.1,0.1-0.2,0.1C7,38.5,6.9,38.4,6.9,38.4z M9.5,0.6L1,5.8c-0.5,0.3-0.6,2.5,0.4,5.3
					c2.3,5.3,4.1,10.8,5.4,16.4c0.3,2.1,0.3,4.2,0.2,6.3c-0.1,1.4,0,2.7,0.1,4.1l9.5-5.8c0.6-0.5,1.9-7.5,0.9-11.3
					c-1.3-5.6-3.1-11-5.4-16.3c-0.8-2.2-1.8-3.5-2.4-3.7c0,0-0.1,0-0.2,0C9.5,0.6,9.5,0.6,9.5,0.6L9.5,0.6z"/>
			</g>
		</g>
		<g id="Group_113" transform="translate(127.889 100.742)">
			<path id="Path_6691" class="st30" d="M4.5,13.8c-1,0-1.9-0.7-2.2-1.7L0.2,6.3c-0.5-1.4,0-2.9,1.2-3.8l3.9-2.3C5.6,0.1,6,0,6.4,0
				c1,0,1.9,0.7,2.2,1.7l2.1,5.7c0.5,1.4,0,2.9-1.2,3.8l-3.9,2.3C5.2,13.7,4.9,13.8,4.5,13.8z"/>
			<path id="Path_6692" class="st29" d="M1.7,3.1l3.9-2.3c0.8-0.4,1.8-0.1,2.3,0.7C7.9,1.6,8,1.8,8,1.9l2.1,5.7c0.4,1.1,0,2.4-0.9,3
				l-3.9,2.3c-0.8,0.4-1.8,0.1-2.3-0.7c-0.1-0.1-0.1-0.3-0.1-0.4L0.8,6.1C0.3,5,0.7,3.8,1.7,3.1z"/>
		</g>
		<g id="Group_114" transform="translate(147.276 89.549)">
			<path id="Path_6693" class="st30" d="M4.5,13.8c-1,0-1.9-0.7-2.2-1.7L0.2,6.3c-0.5-1.4,0-2.9,1.2-3.8l3.9-2.3C5.6,0.1,6,0,6.4,0
				c1,0,1.9,0.7,2.2,1.7l2.1,5.7c0.5,1.4,0,2.9-1.2,3.8l-3.9,2.3C5.2,13.7,4.9,13.8,4.5,13.8z"/>
			<path id="Path_6694" class="st29" d="M1.7,3.1l3.9-2.3c0.8-0.4,1.8-0.1,2.3,0.7C7.9,1.7,8,1.8,8,1.9l2.1,5.7c0.4,1.1,0,2.4-0.9,3
				l-3.9,2.3c-0.8,0.4-1.8,0.1-2.3-0.7c-0.1-0.1-0.1-0.3-0.1-0.4L0.8,6.1C0.3,5,0.7,3.8,1.7,3.1z"/>
		</g>
		<g id="Group_115" transform="translate(166.662 78.355)">
			<path id="Path_6695" class="st30" d="M4.5,13.8c-1,0-1.9-0.7-2.2-1.7L0.2,6.3c-0.5-1.4,0-2.9,1.2-3.8l3.9-2.3C5.6,0.1,6,0,6.4,0
				c1,0,1.9,0.7,2.2,1.7l2.1,5.7c0.5,1.4,0,2.9-1.2,3.8l-3.9,2.3C5.2,13.7,4.9,13.8,4.5,13.8z"/>
			<path id="Path_6696" class="st29" d="M1.7,3.1l3.9-2.3c0.8-0.4,1.8-0.1,2.3,0.7C7.9,1.6,8,1.8,8,1.9l2.1,5.7c0.4,1.1,0,2.4-0.9,3
				l-3.9,2.3c-0.8,0.4-1.8,0.1-2.3-0.7c-0.1-0.1-0.1-0.3-0.1-0.4L0.8,6.1C0.3,5,0.7,3.8,1.7,3.1z"/>
		</g>
		<g id="Group_116" transform="translate(186.049 67.163)">
			<path id="Path_6697" class="st30" d="M4.5,13.8c-1,0-1.9-0.7-2.2-1.7L0.2,6.3c-0.5-1.4,0-2.9,1.2-3.8l3.9-2.3C5.6,0.1,6,0,6.4,0
				c1,0,1.9,0.7,2.2,1.7l2.1,5.7c0.5,1.4,0,2.9-1.2,3.8l-3.9,2.3C5.2,13.7,4.9,13.8,4.5,13.8z"/>
			<path id="Path_6698" class="st29" d="M1.7,3.1l3.9-2.3c0.8-0.4,1.8-0.1,2.3,0.7C7.9,1.7,8,1.8,8,1.9l2.1,5.7c0.4,1.1,0,2.4-0.9,3
				l-3.9,2.3c-0.8,0.4-1.8,0.1-2.3-0.7c-0.1-0.1-0.1-0.3-0.1-0.4L0.8,6.1C0.3,5,0.7,3.8,1.7,3.1z"/>
		</g>
		<g id="Group_117" transform="translate(205.436 55.968)">
			<path id="Path_6699" class="st30" d="M4.5,13.8c-1,0-1.9-0.7-2.2-1.7L0.2,6.3c-0.5-1.4,0-2.9,1.2-3.8l3.9-2.3C5.6,0.1,6,0,6.4,0
				c1,0,1.9,0.7,2.2,1.7l2.1,5.7c0.5,1.4,0,2.9-1.2,3.8l-3.9,2.3C5.2,13.7,4.9,13.8,4.5,13.8z"/>
			<path id="Path_6700" class="st29" d="M1.7,3.1l3.9-2.3c0.8-0.4,1.8-0.1,2.3,0.7C7.9,1.7,8,1.8,8,1.9l2.1,5.7c0.4,1.1,0,2.4-0.9,3
				l-3.9,2.3c-0.8,0.4-1.8,0.1-2.3-0.7c-0.1-0.1-0.1-0.3-0.1-0.4L0.8,6.1C0.3,5,0.7,3.8,1.7,3.1z"/>
		</g>
		<g id="Group_118" transform="translate(224.823 44.776)">
			<path id="Path_6701" class="st30" d="M4.5,13.8c-1,0-1.9-0.7-2.2-1.7L0.2,6.3c-0.5-1.4,0-2.9,1.2-3.8l3.9-2.3C5.6,0.1,6,0,6.4,0
				c1,0,1.9,0.7,2.2,1.7l2.1,5.7c0.5,1.4,0,2.9-1.2,3.8l-3.9,2.3C5.2,13.7,4.9,13.8,4.5,13.8z"/>
			<path id="Path_6702" class="st29" d="M1.7,3.1l3.9-2.3c0.8-0.4,1.8-0.1,2.3,0.7C7.9,1.7,8,1.8,8,1.9l2.1,5.7c0.4,1.1,0,2.4-0.9,3
				l-3.9,2.3c-0.8,0.4-1.8,0.1-2.3-0.7c-0.1-0.1-0.1-0.3-0.1-0.4L0.8,6.1C0.3,5,0.7,3.8,1.7,3.1z"/>
		</g>
		<g id="Group_119" transform="translate(244.209 33.581)">
			<path id="Path_6703" class="st30" d="M4.5,13.8c-1,0-1.9-0.7-2.2-1.7L0.2,6.3c-0.5-1.4,0-2.9,1.2-3.8l3.9-2.3C5.6,0.1,6,0,6.4,0
				c1,0,1.9,0.7,2.2,1.7l2.1,5.7c0.5,1.4,0,2.9-1.2,3.8l-3.9,2.3C5.2,13.7,4.9,13.8,4.5,13.8z"/>
			<path id="Path_6704" class="st29" d="M1.7,3.1l3.9-2.3c0.8-0.4,1.8-0.1,2.3,0.7C7.9,1.6,8,1.8,8,1.9l2.1,5.7c0.4,1.1,0,2.4-0.9,3
				l-3.9,2.3c-0.8,0.4-1.8,0.1-2.3-0.7c-0.1-0.1-0.1-0.3-0.1-0.4L0.8,6.1C0.3,5,0.7,3.8,1.7,3.1z"/>
		</g>
		<path id="Path_6705" class="st12" d="M313,7.4l-2.1-5.7c-0.3-1-1.2-1.7-2.2-1.7c-0.4,0-0.7,0.1-1.1,0.3l-3.9,2.3
			c-1.2,0.8-1.7,2.4-1.2,3.8l2.1,5.7c0.3,1,1.2,1.7,2.2,1.7c0.4,0,0.7-0.1,1.1-0.3l3.9-2.3C313.1,10.4,313.5,8.8,313,7.4z
			 M311.5,10.7l-3.9,2.3c-0.8,0.4-1.8,0.1-2.3-0.7c-0.1-0.1-0.1-0.3-0.1-0.4l-2.1-5.7c-0.4-1.1,0-2.4,0.9-3l3.9-2.3
			c0.8-0.4,1.8-0.1,2.3,0.7c0.1,0.1,0.1,0.3,0.2,0.4l2.1,5.7C312.9,8.8,312.5,10,311.5,10.7L311.5,10.7z"/>
		<path id="Path_6706" class="st12" d="M293.6,18.6l-2.1-5.7c-0.3-1-1.2-1.7-2.2-1.7c-0.4,0-0.7,0.1-1.1,0.3l-3.9,2.3
			c-1.2,0.8-1.7,2.4-1.2,3.8l2.1,5.7c0.3,1,1.2,1.7,2.2,1.7c0.4,0,0.7-0.1,1.1-0.3l3.9-2.3C293.7,21.6,294.2,20,293.6,18.6z
			 M292.1,21.9l-3.9,2.3c-0.8,0.4-1.8,0.1-2.3-0.7c-0.1-0.1-0.1-0.3-0.1-0.4l-2.1-5.7c-0.4-1.1,0-2.4,0.9-3l3.9-2.3
			c0.8-0.4,1.8-0.1,2.3,0.7c0.1,0.1,0.1,0.3,0.1,0.4l2.1,5.7C293.5,19.9,293.1,21.2,292.1,21.9z"/>
	</g>
	<path id="Path_6707" class="st12" d="M735.6,14.2l-11.6,35l-20.3,65.6l-18.2,31.2l-48.9,20.8c0,0,11.9-8,28.7-28.4
		c11.2-13.5,28.7-56.9,39.2-84.4c5.8-15.1,16.1-29,27.8-37.4L735.6,14.2z"/>
	<path id="Path_6708" class="st12" d="M719.6,158.3l13.1,4l102.8,25.3l21.7-10.1l-92-45.6L719.6,158.3z"/>
</g>
</svg>
