<?xml version="1.0" encoding="utf-8"?>
<!-- Generator: Adobe Illustrator 24.0.1, SVG Export Plug-In . SVG Version: 6.00 Build 0)  -->
<svg version="1.1" id="Layer_1" xmlns="http://www.w3.org/2000/svg" xmlns:xlink="http://www.w3.org/1999/xlink" x="0px" y="0px"
	 viewBox="0 0 822.1 183.8" enable-background="new 0 0 822.1 183.8" xml:space="preserve">
<path fill="#FFFFFF" d="M196.2,68.4h25.3c18.2,0,30.7,11,30.7,27.9c0,16.9-12.5,27.9-30.7,27.9h-25.3V68.4z M220.9,113.6
	c11.1,0,18.3-6.6,18.3-17.3c0-10.7-7.2-17.3-18.3-17.3h-11.8v34.5H220.9z"/>
<path fill="#FFFFFF" d="M263.9,68.4h12.9v55.7h-12.9V68.4z"/>
<path fill="#FFFFFF" d="M343.1,68.4v55.7h-10.6l-27.8-33.8v33.8H292V68.4h10.7l27.7,33.8V68.4H343.1z"/>
<path fill="#FFFFFF" d="M395.9,95.4h11.8V118c-6.1,4.6-14.6,7.1-22.5,7.1c-17.5,0-30.4-12-30.4-28.8c0-16.8,12.9-28.8,30.6-28.8
	c9.8,0,17.9,3.3,23.3,9.6l-8.3,7.6c-4.1-4.3-8.8-6.3-14.4-6.3c-10.8,0-18.2,7.2-18.2,17.8c0,10.4,7.4,17.8,18.1,17.8
	c3.5,0,6.8-0.6,10-2.4V95.4z"/>
<path fill="#FFFFFF" d="M458.3,112.2h-25.9l-4.9,11.9h-13.2l24.8-55.7h12.7l24.9,55.7h-13.5L458.3,112.2z M454.3,102.4l-8.8-21.3
	l-8.8,21.3H454.3z"/>
<path fill="#FFFFFF" d="M535.7,68.4v55.7h-10.6l-27.8-33.8v33.8h-12.7V68.4h10.7l27.7,33.8V68.4H535.7z"/>
<path fill="#F36E42" d="M571.3,96.3c0-16.8,12.9-28.8,30.2-28.8c9.6,0,17.7,3.5,22.9,9.9l-8.3,7.6c-3.7-4.3-8.4-6.5-14-6.5
	c-10.4,0-17.8,7.3-17.8,17.8c0,10.5,7.4,17.8,17.8,17.8c5.6,0,10.3-2.2,14-6.6l8.3,7.6c-5.3,6.4-13.3,9.9-23,9.9
	C584.2,125.1,571.3,113.1,571.3,96.3z"/>
<path fill="#F36E42" d="M685.8,124.1l-0.1-33.4l-16.4,27.5h-5.8l-16.3-26.8v32.7h-12.1V68.4h10.7l20.8,34.6l20.5-34.6h10.6l0.2,55.7
	H685.8z"/>
<path fill="#F36E42" d="M708.8,118.7l4.4-9.7c4.7,3.4,11.7,5.8,18.4,5.8c7.6,0,10.7-2.5,10.7-6c0-10.4-32.4-3.3-32.4-24
	c0-9.5,7.6-17.3,23.5-17.3c7,0,14.2,1.7,19.3,4.9l-4,9.8c-5.2-2.9-10.5-4.4-15.4-4.4c-7.6,0-10.6,2.9-10.6,6.4
	c0,10.3,32.4,3.2,32.4,23.6c0,9.3-7.7,17.3-23.6,17.3C722.6,125.1,713.7,122.5,708.8,118.7z"/>
<polygon points="94.2,73.6 94.4,73.4 94.2,73.2 "/>
<polygon fill="#EF4423" points="151.9,29.6 94.4,73.4 151.9,117.4 151.9,117.4 "/>
<polygon fill="#F69069" points="36.7,117.4 94.2,161.7 94.2,73.6 "/>
<polygon fill="#F36E42" points="94.2,73.6 94.2,161.7 94.3,161.8 151.9,117.4 94.4,73.4 "/>
<polygon fill="#FAB292" points="36.7,117.4 36.7,117.4 94.2,73.6 94.2,73.2 94.4,73.4 36.7,28.7 "/>
</svg>
